<mxfile host="app.diagrams.net" agent="Mozilla/5.0 (Macintosh; Intel Mac OS X 10_15_7) AppleWebKit/537.36 (KHTML, like Gecko) Chrome/138.0.0.0 Safari/537.36" version="28.0.7">
  <diagram name="第 1 页" id="lYSCccjF1Dvj0ZZ6_NC8">
    <mxGraphModel dx="895" dy="470" grid="1" gridSize="10" guides="1" tooltips="1" connect="1" arrows="1" fold="1" page="1" pageScale="1" pageWidth="827" pageHeight="1169" math="0" shadow="0">
      <root>
        <mxCell id="0" />
        <mxCell id="1" parent="0" />
        <mxCell id="wiMrC1SCOThkHgXVYU3t-20" value="" style="rounded=0;whiteSpace=wrap;html=1;dashed=1;dashPattern=12 12;" vertex="1" parent="1">
          <mxGeometry x="180" y="370" width="120" height="170" as="geometry" />
        </mxCell>
        <mxCell id="wiMrC1SCOThkHgXVYU3t-21" style="rounded=0;orthogonalLoop=1;jettySize=auto;html=1;exitX=0.25;exitY=1;exitDx=0;exitDy=0;entryX=0.5;entryY=0;entryDx=0;entryDy=0;strokeColor=#FF6A00;" edge="1" parent="1" source="wiMrC1SCOThkHgXVYU3t-4" target="wiMrC1SCOThkHgXVYU3t-20">
          <mxGeometry relative="1" as="geometry" />
        </mxCell>
        <mxCell id="wiMrC1SCOThkHgXVYU3t-29" style="rounded=0;orthogonalLoop=1;jettySize=auto;html=1;exitX=0.75;exitY=1;exitDx=0;exitDy=0;entryX=0.5;entryY=0;entryDx=0;entryDy=0;strokeColor=#FFE599;" edge="1" parent="1" source="wiMrC1SCOThkHgXVYU3t-4" target="wiMrC1SCOThkHgXVYU3t-22">
          <mxGeometry relative="1" as="geometry" />
        </mxCell>
        <mxCell id="wiMrC1SCOThkHgXVYU3t-4" value="" style="rounded=1;whiteSpace=wrap;html=1;dashed=1;dashPattern=8 8;" vertex="1" parent="1">
          <mxGeometry x="294" y="240" width="126" height="50" as="geometry" />
        </mxCell>
        <mxCell id="wiMrC1SCOThkHgXVYU3t-1" value="" style="shape=image;verticalLabelPosition=bottom;labelBackgroundColor=default;verticalAlign=top;aspect=fixed;imageAspect=0;image=data:image/png,iVBORw0KGgoAAAANSUhEUgAAAMgAAADICAYAAACtWK6eAAAAAXNSR0IArs4c6QAAEe9JREFUeF7tnQesbUUVhn+ESBFEpCjSFAggIiJNSgClSBBCSQAB6V1KADVGxSjGKImFR1dK6E1AKYIBARWQEsAnoSggPAXpaFBBSgR1//fNPhzuu+eevWfNzJ6997+Smwt5s9bM/LO/O2efmVkzF2RSQAqMVGAuaSMFpMBoBQSIng4pMI0CAkSPhxQQIHoGpICfAppB/HSTV08UECA9GWh1008BAeKnm7x6ooAA6clAq5t+CggQP93k1RMFBEhPBlrd9FNAgPjpJq+eKCBAejLQ6qafAgLETzd59UQBAdKTgVY3/RQQIH66yasnCgiQ5gd6SQAfAMDfywBYGMBfADwJ4GkATwF4vflm9rMFAqSZcScQuwP4HIDVxzThWQBnAzgHwCPNNLe/tQqQtGO/JoA9HRiL1az6FQfKWQBm1vRVcU8FBIincDXdlgBwlPuZt6bv5OL8uDXD/TxvjCX3MQoIkPiPyGEOjOUDVzXLQXJy4LgKN6SAAIn3OOzgwNgoXhUTkW91oFwRuZ5ehhcg4Yd9XQfGLuFDTxvxEgfKXYnr7XR1AiTc8C7lwDgSwNzhwtaK9CaA4x0o/HpYZlRAgBgFdO6Egi/hy4YJZ47yhIOEsMgMCggQg3gAdnJgrG8LE837DgfKZdFq6HhgAeI3wBs4MHb0c0/udbkD5fbkNbe8QgFSbwCXc2AcUc8tm9InOFAez6ZFmTdEgFQboHmGFvq4Z6rN9szQQuMbbe5IirYLkPEq7waAL+HrjC/aqhJ3u2+8LmpVqxM3VoCMFnxjN2tsn3hMUld3pZtRbkldcRvqEyBzjtIKDoxD2zCAAdt4igPlsYAxWx9KgLw1hPMNvWcs3vqR9evAC0PvJ6/5heiWlwCZPZ7cgs6FvjW6NbzevbnXgXKed4SOOPYdkM3cC/g2HRnP0N24xr3I3xQ6cFvi9RWQld2McVBbBqrhdp7mZpSHG25H8ur7BsiCQ+8ZiyRXu90Vvjj0fvJyu7tSvfV9AmRfB8dq1eVRySkUeMCBwqO/nbc+ALKlA4O/ZeEUuN6Bwt+dtS4DwpmC30xx5pDFU4AzCc/Ic2bpnHUREL5blOczFurciOXZoZeGzp/wXaUz1jVADnSzxiqdGaF2deQhB8rp7Wr26NZ2BZCtHRhc15A1rwDXTfix69rmm2JrQdsB4co33zO4Ei7LTwGuxBMUrsy30toKCPdKlYnYuIdKlq8C3NNVJrrjXq9WWRsBOcTBsWKrlFZjH3WgnNomKdoEyHYOjE3aJLDaOocCNztQrmqDNm0AZG0HBk/2ybqjAE8y8qPXPTl3KWdAePa7fM/gmXBZ9xTgmfjy/YRn5bOzXAFh1hDCwSwisu4rwCwrBIVZV7Ky3ABhnimugm+YlUpqTCoFbnPnT5jHKwvLBZD13IyxcxaqqBFNK3Cpm1HubLohOQDCj1LHNS2E6s9SgYOLuxt5WKsxaxqQMwHs11jvVXEbFPhW0chjmmpok4BcB0BnNJoa+XbV2xgkTQHC1dTPt2uM1NqGFeD7afIs9U0Aws+VP2pYbFXfTgV4Zfb9KZueGhDeC35Byg6qrk4p8CAAbjX6e6pepQSEGUV4LFOLf6lGt5v1/LR4jpLdy5ISkP0BnNHNMVOvEivAWSRJsu2UgNwAYPPEQqq6birAP7Q8Xh3dUgHCqwS4zVkmBUIo8AqAjwHgGZOolgqQYwF8JWpPFLxvCnDxkOsjUS0VIOcXtO8etSdxgjNLx78ALAZg0WJ/0MJxqmks6qwibxivjP5w8dX7+xprhV/FzMcVfRdGKkB+DeCTfjok9eLlMVyj+T2AmcXO4n9Mqp2gbFv8O0838ncb7TcAjgbwh0n9WxUAr7M+AMAnWtCxGwFsEbudqQDhZ0Xe3JSzcXX/O8XL39MVG8mH6HAAXNtpix3vdk2Pay/XqnLv1yMAmKU/qqUChJkt5o3aE1vwXQFc4hliKwAnFguguSeRqLtVg7nGeD9IrsZnav7YjUsFyP9id8QQ/+tu5jCEwEeLj5D86PJeS5CIvie72a5uFRcCyDkXQPTnN3oFbkRyBYQfJfao+9SMKM8X+MnvLIFCm8K86j6K/NUjylqZJ1WI/vxGryBzQPhCyjMpoWyJYpfyc6GCBYrD/UuWO1HuyviO+OjPb/QKMgeEZ99vD/QglmE+BeBXgWNawv3c+I0br4dmsr4cLfrzG72CzAHh9QgxrhM7rFg3OSmTJ+r7AL5saMsOAH5m8I/pGv35jV5B5oDE7D/XU3j2pWmznsbj+hXXsXK0mOM30d/oFfQYEHadO043avjJEiCGARAgBvEquvJwT5Nf/wqQigM1VTEBYhCvousCAP5dsWyMYgLEoKoAMYhXw5Vbs5u6REaA1BioyUUFiEG8mq5ckebKdGoTIAbFBYhBPA9Xbob8moefxUWAGNQTIAbxPF15cUzKrfICxHOg6CZADOIZXFNu/xcghoESIAbxDK7U/b8G/zquAqSOWpPKChCDeEbXlQA8bIxRxV2AVFFpRBkBYhAvgGuKQ0kCxDBQAsQgXiDXLwHghsJYJkAMygoQg3gBXc8GsHfAeMOhBIhBWAFiEK+4T+89AU8RxjqYJEAMYyxADOK504jMORzKuGeLe7dCmgAxqClADOK5cxK3Fl/ZfsMWZuC9jEvkFijcRBgBYlBTgBjEc4DwQBFvy/qxLdTAe9PiDMlNgWIJEKOQAsQmYJkxkh+NuBnxalu4gfdBAYHTDGIYFAFiEG9oBmGUPxULf0xA9ztbyIH3D4u8wF8IEEuAGEQUIAbxJgHCSLziYfuA32xdX2Rd+bStiXoHsegnQCzqzU5mMDkp98WBsxE+WdzMtZShmZpBDOIJEIN4U8wgZTR+POIKeQhjRvkXDIEEiEE8AWIQbxpAGJXvDzNs4QfevJbAN8GdADEMggAxiDcGEOYj5kv7T2xVDLz3BHCuRywB4iFa6SJADOKNAYSRnwKwE4A7bNUMvL8NgNno65gAqaPWpLICxCBeBUAY/W73Is+LJ0MYZyTe9VHVBEhVpaYoJ0AM4lUEhDVcCYA5bkPZfcDEnSRVTIBUUWlEGQFiEK8GIKyFV7wdaqtu4P0ud7noOyrEEyAVRBpVRIAYxKsJCGsKcZtV2eI13GWj43ogQMYpNM2/CxCDeB6AsLZ9AfCAVAjjFwCXjgkkQAxKCxCDeJ6AvOiuLw61Z4uJ6JiQbpQJEMMYCxCDeJ6AsMYHAHy8+Mj1hq36gfc5APYaEUuAGEQWIAbxDICw1l8W6yNb2qp/m/dtRcwNpognQAwiCxCDeEZAWDP/8u9ja8LAm99oPV9c/bbopHgCxCCwADGIFwAQ1v5dAEfbmjHwXhnAQwIkkJrKzWvOTTzVdnef0eE+q/N9HKfw2QYAb7YtTTOIQVjNIAbxAs0gbMFrANYFcL+tOQPvowAc5/5PgBhEFSAG8QICwlbMKmaRFWzNeZt3ecuuADGIKkAM4gUGhC35beBbcW90MY8xdFPXQBvEq+rKsxE5mvUPRKh3kGFtuDL+2YBiEQ4B4imo9QGpWq0AqarU7HLHBryqbVljMjrNIPXGzqu0AKkv2y4BTyPWr/0tDwFiUa+irwCpKNSkYqskumRnutYJEL+xq+UlQGrJNSj8LIAl/VyDeQmQYFKODiRA/EWeWSz8reXvbvYUIGYJxwcQIOM1mq5E6CO7dVojQOqo5VlWgHgKN+RmXfDzbYEA8VWuhp8AqSHWNEWZ+IGzSUoTIAnUFiDhRF6+OBz153DhxkYSIGMlshcQIHYNywj/dHcjhos4fSQBkkBpARJW5D8WyRpWDRtyZDQBkkBoARJe5NB7tka1UICEH7s5IgqQOCLzJCJPJMY0ARJTXRdbgMQTeevisNUv4oWfuCCIu5ZztOibbaNXIECSPFdLu0zyMSoTIDFUnRQz1xlkQQC8odbXmPxtTV/ngH7/KT5qvTNgvOFQW0WeoSzNjv4HPnoFmc8gPAfO6wl87N0A+JVrLsZkdFUzvtdp8+EATqzjkLBs9Oc3egWZA8KcVMxN5WNM+nadj2NEnwsA7BE4/kkADgscM1S46M9v9AoyB+RCALt7jhaPsX7T0zemW+g9W8wAuUXMBhtiR39+o1eQOSBsns8DxUW6Bw0DG9vVp09TtekHAL4Yu7GG+NGf3+gVuM6/CmA+gxCxXevqwPeWtWM3yhifs+P3APA2Kh/bv7if/Qwfx0Q+zCU2f+y66j4Yvu15GMBKvs6J/LYrvpG6ukJdZwLYr0K5HIrwDxPfIfiSzQtFqxhPMHLWyHnmYD8eAcBUq1EtFSA3FPmZNo/akzDBzwLAtnJh7LmhkB8EsLpbtf5ImKqSRuGdJMyRxZSkU6U45V/iFQFs7MD4UNLW+VXG/kR/N0oFCG9U2ttPh8a8+NHkdffgLNJYK+JU/ILLBM/f3D7P1EBts5CZ8Uf2PRUg3C/01baNgNqbtQIhc4c1DsiGLgVm1oqrca1SYBMAt8RucaoZhP24CsC2sTuk+L1QIMn7B5VMCUiVG1l7MbrqpFmBAwDw28TolhIQdqYN6wfRRVcFJgUeB7AagJdNUSo6pwbkMwCurdg2FZMCUylwcJFt8rRU0qQGhP3i/iVLOv5U2qie/BTggucRKZvVBCDs38XFZZPMXi6TAlUV4CJn8i95mgKEolxUZC7ftao6KtdrBfgHdbcmFGgSEPb3UAAnN9Fx1dkaBXgW5ZSmWts0IOw3r0A+tykBVG/WCuxVbIU5r8kW5gAI+79ecXyVVxfv3KQYqjsbBZjzawaAO5tuUS6AlDrsCODIYkctt6bI+qfAbUVa1eOLdY7Lc+l6boCUuvCrPM4oy+UilNoRVQEu/nHGOCFqLR7BcwWEXeHBHULCn3k8+iaX/BV4w4FBOJ7Jsbk5A1LqxaOthKSRr/lyHLSOtIlf8xOMe3LuTxsAKfXjkViCwm3OsvYqcLMDg7u7s7c2AVKKeYgDhUdEZe1R4FEHxqntaXLa7e4hdVl86P0k52wpIfvc1ljMPsKPUvzhEd9WWRtnkGGB13CgcLFRlp8CXOQjGPfm17RqLWo7IGUveQUA3082q9ZtlYqswE0OjNYfbegKIOV4H+hAWSXyA6DwUyvwkAPj9K4I1DVAOC5M0cPVeM4oC3VloDLvx0sODK6CMwdXZ6yLgJSDw2OZhGTfzoxWnh1hsj2+Z/D6hc5ZlwEpB4vXFBAU/paFU+B6BwZ/d9b6AEg5eJxJCApnFpm/ApwpOGNw5ui89QkQDiavXCv3d3UtnWjsh5XvFuV6RpKMIrE7VCV+3wApNWFWcIJyUBWRVGYiiwjhYJb+XllfASkHmesm/MZrm16NevXOXuPOZ3Bdo5fWd0DKQedKPGcUrszLZq98c8Zo9LhrDgMhQN4aBe7pKt9PuNerj8a9UuV7BvdQ9d4EyJyPwAoOFGZc6ZMxcwjheKxPnR7XVwEyWiHetsQZZftxIrb83690YES/SqCNOgmQ8aPGk4x8kV9nfNFWlWAicW4N4ck+2QgFBEi1R4Nn4sv3E56Vb7Px7Hf5nsEz4bJpFBAg9R4PZlkhKEkTKNdr4rSlmTWEcDCLiKyCAgKkgkhTFNnAgcI8Xm0w5pkiGLe3obE5tVGA2EaDt2ZxRlnfFiaa9x0OjMui1dDxwAIkzACX509yuU75iaHzGWF62NMoAiTcwC/lZhPCMne4sLUivem+meLHqadqearwlAoIkPAPxroOlNQXBF3iZo27wnepvxEFSLyx38GBslG8KiYi3+rAuCJyPb0ML0DiDzsvgOGL/PKBq5rlwNAFRIGFHQ4nQCKKOxR6iaGFxnmNVb4+tND3vDGW3McoIEDSPiJruiQS+wBYoGbVfwNwoduCPrOmr4p7KiBAPIUzuq0EYO9iRZugvH9MrPscGBcAeNpYr9xrKiBAagoWuDg/bi0NYBn3m//NHFMEgV/Tlj+Bq1W4qgoIkKpKqVwvFRAgvRx2dbqqAgKkqlIq10sFBEgvh12drqqAAKmqlMr1UgEB0sthV6erKiBAqiqlcr1UQID0ctjV6aoKCJCqSqlcLxUQIL0cdnW6qgICpKpSKtdLBQRIL4ddna6qgACpqpTK9VIBAdLLYVenqyogQKoqpXK9VECA9HLY1emqCvwfFHas5097lpAAAAAASUVORK5CYII=;" vertex="1" parent="1">
          <mxGeometry x="300" y="250" width="30" height="30" as="geometry" />
        </mxCell>
        <mxCell id="wiMrC1SCOThkHgXVYU3t-2" value="" style="shape=image;verticalLabelPosition=bottom;labelBackgroundColor=default;verticalAlign=top;aspect=fixed;imageAspect=0;image=data:image/png,iVBORw0KGgoAAAANSUhEUgAAAMgAAADICAYAAACtWK6eAAAAAXNSR0IArs4c6QAAEe9JREFUeF7tnQesbUUVhn+ESBFEpCjSFAggIiJNSgClSBBCSQAB6V1KADVGxSjGKImFR1dK6E1AKYIBARWQEsAnoSggPAXpaFBBSgR1//fNPhzuu+eevWfNzJ6997+Smwt5s9bM/LO/O2efmVkzF2RSQAqMVGAuaSMFpMBoBQSIng4pMI0CAkSPhxQQIHoGpICfAppB/HSTV08UECA9GWh1008BAeKnm7x6ooAA6clAq5t+CggQP93k1RMFBEhPBlrd9FNAgPjpJq+eKCBAejLQ6qafAgLETzd59UQBAdKTgVY3/RQQIH66yasnCgiQ5gd6SQAfAMDfywBYGMBfADwJ4GkATwF4vflm9rMFAqSZcScQuwP4HIDVxzThWQBnAzgHwCPNNLe/tQqQtGO/JoA9HRiL1az6FQfKWQBm1vRVcU8FBIincDXdlgBwlPuZt6bv5OL8uDXD/TxvjCX3MQoIkPiPyGEOjOUDVzXLQXJy4LgKN6SAAIn3OOzgwNgoXhUTkW91oFwRuZ5ehhcg4Yd9XQfGLuFDTxvxEgfKXYnr7XR1AiTc8C7lwDgSwNzhwtaK9CaA4x0o/HpYZlRAgBgFdO6Egi/hy4YJZ47yhIOEsMgMCggQg3gAdnJgrG8LE837DgfKZdFq6HhgAeI3wBs4MHb0c0/udbkD5fbkNbe8QgFSbwCXc2AcUc8tm9InOFAez6ZFmTdEgFQboHmGFvq4Z6rN9szQQuMbbe5IirYLkPEq7waAL+HrjC/aqhJ3u2+8LmpVqxM3VoCMFnxjN2tsn3hMUld3pZtRbkldcRvqEyBzjtIKDoxD2zCAAdt4igPlsYAxWx9KgLw1hPMNvWcs3vqR9evAC0PvJ6/5heiWlwCZPZ7cgs6FvjW6NbzevbnXgXKed4SOOPYdkM3cC/g2HRnP0N24xr3I3xQ6cFvi9RWQld2McVBbBqrhdp7mZpSHG25H8ur7BsiCQ+8ZiyRXu90Vvjj0fvJyu7tSvfV9AmRfB8dq1eVRySkUeMCBwqO/nbc+ALKlA4O/ZeEUuN6Bwt+dtS4DwpmC30xx5pDFU4AzCc/Ic2bpnHUREL5blOczFurciOXZoZeGzp/wXaUz1jVADnSzxiqdGaF2deQhB8rp7Wr26NZ2BZCtHRhc15A1rwDXTfix69rmm2JrQdsB4co33zO4Ei7LTwGuxBMUrsy30toKCPdKlYnYuIdKlq8C3NNVJrrjXq9WWRsBOcTBsWKrlFZjH3WgnNomKdoEyHYOjE3aJLDaOocCNztQrmqDNm0AZG0HBk/2ybqjAE8y8qPXPTl3KWdAePa7fM/gmXBZ9xTgmfjy/YRn5bOzXAFh1hDCwSwisu4rwCwrBIVZV7Ky3ABhnimugm+YlUpqTCoFbnPnT5jHKwvLBZD13IyxcxaqqBFNK3Cpm1HubLohOQDCj1LHNS2E6s9SgYOLuxt5WKsxaxqQMwHs11jvVXEbFPhW0chjmmpok4BcB0BnNJoa+XbV2xgkTQHC1dTPt2uM1NqGFeD7afIs9U0Aws+VP2pYbFXfTgV4Zfb9KZueGhDeC35Byg6qrk4p8CAAbjX6e6pepQSEGUV4LFOLf6lGt5v1/LR4jpLdy5ISkP0BnNHNMVOvEivAWSRJsu2UgNwAYPPEQqq6birAP7Q8Xh3dUgHCqwS4zVkmBUIo8AqAjwHgGZOolgqQYwF8JWpPFLxvCnDxkOsjUS0VIOcXtO8etSdxgjNLx78ALAZg0WJ/0MJxqmks6qwibxivjP5w8dX7+xprhV/FzMcVfRdGKkB+DeCTfjok9eLlMVyj+T2AmcXO4n9Mqp2gbFv8O0838ncb7TcAjgbwh0n9WxUAr7M+AMAnWtCxGwFsEbudqQDhZ0Xe3JSzcXX/O8XL39MVG8mH6HAAXNtpix3vdk2Pay/XqnLv1yMAmKU/qqUChJkt5o3aE1vwXQFc4hliKwAnFguguSeRqLtVg7nGeD9IrsZnav7YjUsFyP9id8QQ/+tu5jCEwEeLj5D86PJeS5CIvie72a5uFRcCyDkXQPTnN3oFbkRyBYQfJfao+9SMKM8X+MnvLIFCm8K86j6K/NUjylqZJ1WI/vxGryBzQPhCyjMpoWyJYpfyc6GCBYrD/UuWO1HuyviO+OjPb/QKMgeEZ99vD/QglmE+BeBXgWNawv3c+I0br4dmsr4cLfrzG72CzAHh9QgxrhM7rFg3OSmTJ+r7AL5saMsOAH5m8I/pGv35jV5B5oDE7D/XU3j2pWmznsbj+hXXsXK0mOM30d/oFfQYEHadO043avjJEiCGARAgBvEquvJwT5Nf/wqQigM1VTEBYhCvousCAP5dsWyMYgLEoKoAMYhXw5Vbs5u6REaA1BioyUUFiEG8mq5ckebKdGoTIAbFBYhBPA9Xbob8moefxUWAGNQTIAbxPF15cUzKrfICxHOg6CZADOIZXFNu/xcghoESIAbxDK7U/b8G/zquAqSOWpPKChCDeEbXlQA8bIxRxV2AVFFpRBkBYhAvgGuKQ0kCxDBQAsQgXiDXLwHghsJYJkAMygoQg3gBXc8GsHfAeMOhBIhBWAFiEK+4T+89AU8RxjqYJEAMYyxADOK504jMORzKuGeLe7dCmgAxqClADOK5cxK3Fl/ZfsMWZuC9jEvkFijcRBgBYlBTgBjEc4DwQBFvy/qxLdTAe9PiDMlNgWIJEKOQAsQmYJkxkh+NuBnxalu4gfdBAYHTDGIYFAFiEG9oBmGUPxULf0xA9ztbyIH3D4u8wF8IEEuAGEQUIAbxJgHCSLziYfuA32xdX2Rd+bStiXoHsegnQCzqzU5mMDkp98WBsxE+WdzMtZShmZpBDOIJEIN4U8wgZTR+POIKeQhjRvkXDIEEiEE8AWIQbxpAGJXvDzNs4QfevJbAN8GdADEMggAxiDcGEOYj5kv7T2xVDLz3BHCuRywB4iFa6SJADOKNAYSRnwKwE4A7bNUMvL8NgNno65gAqaPWpLICxCBeBUAY/W73Is+LJ0MYZyTe9VHVBEhVpaYoJ0AM4lUEhDVcCYA5bkPZfcDEnSRVTIBUUWlEGQFiEK8GIKyFV7wdaqtu4P0ud7noOyrEEyAVRBpVRIAYxKsJCGsKcZtV2eI13GWj43ogQMYpNM2/CxCDeB6AsLZ9AfCAVAjjFwCXjgkkQAxKCxCDeJ6AvOiuLw61Z4uJ6JiQbpQJEMMYCxCDeJ6AsMYHAHy8+Mj1hq36gfc5APYaEUuAGEQWIAbxDICw1l8W6yNb2qp/m/dtRcwNpognQAwiCxCDeEZAWDP/8u9ja8LAm99oPV9c/bbopHgCxCCwADGIFwAQ1v5dAEfbmjHwXhnAQwIkkJrKzWvOTTzVdnef0eE+q/N9HKfw2QYAb7YtTTOIQVjNIAbxAs0gbMFrANYFcL+tOQPvowAc5/5PgBhEFSAG8QICwlbMKmaRFWzNeZt3ecuuADGIKkAM4gUGhC35beBbcW90MY8xdFPXQBvEq+rKsxE5mvUPRKh3kGFtuDL+2YBiEQ4B4imo9QGpWq0AqarU7HLHBryqbVljMjrNIPXGzqu0AKkv2y4BTyPWr/0tDwFiUa+irwCpKNSkYqskumRnutYJEL+xq+UlQGrJNSj8LIAl/VyDeQmQYFKODiRA/EWeWSz8reXvbvYUIGYJxwcQIOM1mq5E6CO7dVojQOqo5VlWgHgKN+RmXfDzbYEA8VWuhp8AqSHWNEWZ+IGzSUoTIAnUFiDhRF6+OBz153DhxkYSIGMlshcQIHYNywj/dHcjhos4fSQBkkBpARJW5D8WyRpWDRtyZDQBkkBoARJe5NB7tka1UICEH7s5IgqQOCLzJCJPJMY0ARJTXRdbgMQTeevisNUv4oWfuCCIu5ZztOibbaNXIECSPFdLu0zyMSoTIDFUnRQz1xlkQQC8odbXmPxtTV/ngH7/KT5qvTNgvOFQW0WeoSzNjv4HPnoFmc8gPAfO6wl87N0A+JVrLsZkdFUzvtdp8+EATqzjkLBs9Oc3egWZA8KcVMxN5WNM+nadj2NEnwsA7BE4/kkADgscM1S46M9v9AoyB+RCALt7jhaPsX7T0zemW+g9W8wAuUXMBhtiR39+o1eQOSBsns8DxUW6Bw0DG9vVp09TtekHAL4Yu7GG+NGf3+gVuM6/CmA+gxCxXevqwPeWtWM3yhifs+P3APA2Kh/bv7if/Qwfx0Q+zCU2f+y66j4Yvu15GMBKvs6J/LYrvpG6ukJdZwLYr0K5HIrwDxPfIfiSzQtFqxhPMHLWyHnmYD8eAcBUq1EtFSA3FPmZNo/akzDBzwLAtnJh7LmhkB8EsLpbtf5ImKqSRuGdJMyRxZSkU6U45V/iFQFs7MD4UNLW+VXG/kR/N0oFCG9U2ttPh8a8+NHkdffgLNJYK+JU/ILLBM/f3D7P1EBts5CZ8Uf2PRUg3C/01baNgNqbtQIhc4c1DsiGLgVm1oqrca1SYBMAt8RucaoZhP24CsC2sTuk+L1QIMn7B5VMCUiVG1l7MbrqpFmBAwDw28TolhIQdqYN6wfRRVcFJgUeB7AagJdNUSo6pwbkMwCurdg2FZMCUylwcJFt8rRU0qQGhP3i/iVLOv5U2qie/BTggucRKZvVBCDs38XFZZPMXi6TAlUV4CJn8i95mgKEolxUZC7ftao6KtdrBfgHdbcmFGgSEPb3UAAnN9Fx1dkaBXgW5ZSmWts0IOw3r0A+tykBVG/WCuxVbIU5r8kW5gAI+79ecXyVVxfv3KQYqjsbBZjzawaAO5tuUS6AlDrsCODIYkctt6bI+qfAbUVa1eOLdY7Lc+l6boCUuvCrPM4oy+UilNoRVQEu/nHGOCFqLR7BcwWEXeHBHULCn3k8+iaX/BV4w4FBOJ7Jsbk5A1LqxaOthKSRr/lyHLSOtIlf8xOMe3LuTxsAKfXjkViCwm3OsvYqcLMDg7u7s7c2AVKKeYgDhUdEZe1R4FEHxqntaXLa7e4hdVl86P0k52wpIfvc1ljMPsKPUvzhEd9WWRtnkGGB13CgcLFRlp8CXOQjGPfm17RqLWo7IGUveQUA3082q9ZtlYqswE0OjNYfbegKIOV4H+hAWSXyA6DwUyvwkAPj9K4I1DVAOC5M0cPVeM4oC3VloDLvx0sODK6CMwdXZ6yLgJSDw2OZhGTfzoxWnh1hsj2+Z/D6hc5ZlwEpB4vXFBAU/paFU+B6BwZ/d9b6AEg5eJxJCApnFpm/ApwpOGNw5ui89QkQDiavXCv3d3UtnWjsh5XvFuV6RpKMIrE7VCV+3wApNWFWcIJyUBWRVGYiiwjhYJb+XllfASkHmesm/MZrm16NevXOXuPOZ3Bdo5fWd0DKQedKPGcUrszLZq98c8Zo9LhrDgMhQN4aBe7pKt9PuNerj8a9UuV7BvdQ9d4EyJyPwAoOFGZc6ZMxcwjheKxPnR7XVwEyWiHetsQZZftxIrb83690YES/SqCNOgmQ8aPGk4x8kV9nfNFWlWAicW4N4ck+2QgFBEi1R4Nn4sv3E56Vb7Px7Hf5nsEz4bJpFBAg9R4PZlkhKEkTKNdr4rSlmTWEcDCLiKyCAgKkgkhTFNnAgcI8Xm0w5pkiGLe3obE5tVGA2EaDt2ZxRlnfFiaa9x0OjMui1dDxwAIkzACX509yuU75iaHzGWF62NMoAiTcwC/lZhPCMne4sLUivem+meLHqadqearwlAoIkPAPxroOlNQXBF3iZo27wnepvxEFSLyx38GBslG8KiYi3+rAuCJyPb0ML0DiDzsvgOGL/PKBq5rlwNAFRIGFHQ4nQCKKOxR6iaGFxnmNVb4+tND3vDGW3McoIEDSPiJruiQS+wBYoGbVfwNwoduCPrOmr4p7KiBAPIUzuq0EYO9iRZugvH9MrPscGBcAeNpYr9xrKiBAagoWuDg/bi0NYBn3m//NHFMEgV/Tlj+Bq1W4qgoIkKpKqVwvFRAgvRx2dbqqAgKkqlIq10sFBEgvh12drqqAAKmqlMr1UgEB0sthV6erKiBAqiqlcr1UQID0ctjV6aoKCJCqSqlcLxUQIL0cdnW6qgICpKpSKtdLBQRIL4ddna6qgACpqpTK9VIBAdLLYVenqyogQKoqpXK9VECA9HLY1emqCvwfFHas5097lpAAAAAASUVORK5CYII=;" vertex="1" parent="1">
          <mxGeometry x="340" y="250" width="30" height="30" as="geometry" />
        </mxCell>
        <mxCell id="wiMrC1SCOThkHgXVYU3t-3" value="" style="shape=image;verticalLabelPosition=bottom;labelBackgroundColor=default;verticalAlign=top;aspect=fixed;imageAspect=0;image=data:image/png,iVBORw0KGgoAAAANSUhEUgAAAMgAAADICAYAAACtWK6eAAAAAXNSR0IArs4c6QAAEe9JREFUeF7tnQesbUUVhn+ESBFEpCjSFAggIiJNSgClSBBCSQAB6V1KADVGxSjGKImFR1dK6E1AKYIBARWQEsAnoSggPAXpaFBBSgR1//fNPhzuu+eevWfNzJ6997+Smwt5s9bM/LO/O2efmVkzF2RSQAqMVGAuaSMFpMBoBQSIng4pMI0CAkSPhxQQIHoGpICfAppB/HSTV08UECA9GWh1008BAeKnm7x6ooAA6clAq5t+CggQP93k1RMFBEhPBlrd9FNAgPjpJq+eKCBAejLQ6qafAgLETzd59UQBAdKTgVY3/RQQIH66yasnCgiQ5gd6SQAfAMDfywBYGMBfADwJ4GkATwF4vflm9rMFAqSZcScQuwP4HIDVxzThWQBnAzgHwCPNNLe/tQqQtGO/JoA9HRiL1az6FQfKWQBm1vRVcU8FBIincDXdlgBwlPuZt6bv5OL8uDXD/TxvjCX3MQoIkPiPyGEOjOUDVzXLQXJy4LgKN6SAAIn3OOzgwNgoXhUTkW91oFwRuZ5ehhcg4Yd9XQfGLuFDTxvxEgfKXYnr7XR1AiTc8C7lwDgSwNzhwtaK9CaA4x0o/HpYZlRAgBgFdO6Egi/hy4YJZ47yhIOEsMgMCggQg3gAdnJgrG8LE837DgfKZdFq6HhgAeI3wBs4MHb0c0/udbkD5fbkNbe8QgFSbwCXc2AcUc8tm9InOFAez6ZFmTdEgFQboHmGFvq4Z6rN9szQQuMbbe5IirYLkPEq7waAL+HrjC/aqhJ3u2+8LmpVqxM3VoCMFnxjN2tsn3hMUld3pZtRbkldcRvqEyBzjtIKDoxD2zCAAdt4igPlsYAxWx9KgLw1hPMNvWcs3vqR9evAC0PvJ6/5heiWlwCZPZ7cgs6FvjW6NbzevbnXgXKed4SOOPYdkM3cC/g2HRnP0N24xr3I3xQ6cFvi9RWQld2McVBbBqrhdp7mZpSHG25H8ur7BsiCQ+8ZiyRXu90Vvjj0fvJyu7tSvfV9AmRfB8dq1eVRySkUeMCBwqO/nbc+ALKlA4O/ZeEUuN6Bwt+dtS4DwpmC30xx5pDFU4AzCc/Ic2bpnHUREL5blOczFurciOXZoZeGzp/wXaUz1jVADnSzxiqdGaF2deQhB8rp7Wr26NZ2BZCtHRhc15A1rwDXTfix69rmm2JrQdsB4co33zO4Ei7LTwGuxBMUrsy30toKCPdKlYnYuIdKlq8C3NNVJrrjXq9WWRsBOcTBsWKrlFZjH3WgnNomKdoEyHYOjE3aJLDaOocCNztQrmqDNm0AZG0HBk/2ybqjAE8y8qPXPTl3KWdAePa7fM/gmXBZ9xTgmfjy/YRn5bOzXAFh1hDCwSwisu4rwCwrBIVZV7Ky3ABhnimugm+YlUpqTCoFbnPnT5jHKwvLBZD13IyxcxaqqBFNK3Cpm1HubLohOQDCj1LHNS2E6s9SgYOLuxt5WKsxaxqQMwHs11jvVXEbFPhW0chjmmpok4BcB0BnNJoa+XbV2xgkTQHC1dTPt2uM1NqGFeD7afIs9U0Aws+VP2pYbFXfTgV4Zfb9KZueGhDeC35Byg6qrk4p8CAAbjX6e6pepQSEGUV4LFOLf6lGt5v1/LR4jpLdy5ISkP0BnNHNMVOvEivAWSRJsu2UgNwAYPPEQqq6birAP7Q8Xh3dUgHCqwS4zVkmBUIo8AqAjwHgGZOolgqQYwF8JWpPFLxvCnDxkOsjUS0VIOcXtO8etSdxgjNLx78ALAZg0WJ/0MJxqmks6qwibxivjP5w8dX7+xprhV/FzMcVfRdGKkB+DeCTfjok9eLlMVyj+T2AmcXO4n9Mqp2gbFv8O0838ncb7TcAjgbwh0n9WxUAr7M+AMAnWtCxGwFsEbudqQDhZ0Xe3JSzcXX/O8XL39MVG8mH6HAAXNtpix3vdk2Pay/XqnLv1yMAmKU/qqUChJkt5o3aE1vwXQFc4hliKwAnFguguSeRqLtVg7nGeD9IrsZnav7YjUsFyP9id8QQ/+tu5jCEwEeLj5D86PJeS5CIvie72a5uFRcCyDkXQPTnN3oFbkRyBYQfJfao+9SMKM8X+MnvLIFCm8K86j6K/NUjylqZJ1WI/vxGryBzQPhCyjMpoWyJYpfyc6GCBYrD/UuWO1HuyviO+OjPb/QKMgeEZ99vD/QglmE+BeBXgWNawv3c+I0br4dmsr4cLfrzG72CzAHh9QgxrhM7rFg3OSmTJ+r7AL5saMsOAH5m8I/pGv35jV5B5oDE7D/XU3j2pWmznsbj+hXXsXK0mOM30d/oFfQYEHadO043avjJEiCGARAgBvEquvJwT5Nf/wqQigM1VTEBYhCvousCAP5dsWyMYgLEoKoAMYhXw5Vbs5u6REaA1BioyUUFiEG8mq5ckebKdGoTIAbFBYhBPA9Xbob8moefxUWAGNQTIAbxPF15cUzKrfICxHOg6CZADOIZXFNu/xcghoESIAbxDK7U/b8G/zquAqSOWpPKChCDeEbXlQA8bIxRxV2AVFFpRBkBYhAvgGuKQ0kCxDBQAsQgXiDXLwHghsJYJkAMygoQg3gBXc8GsHfAeMOhBIhBWAFiEK+4T+89AU8RxjqYJEAMYyxADOK504jMORzKuGeLe7dCmgAxqClADOK5cxK3Fl/ZfsMWZuC9jEvkFijcRBgBYlBTgBjEc4DwQBFvy/qxLdTAe9PiDMlNgWIJEKOQAsQmYJkxkh+NuBnxalu4gfdBAYHTDGIYFAFiEG9oBmGUPxULf0xA9ztbyIH3D4u8wF8IEEuAGEQUIAbxJgHCSLziYfuA32xdX2Rd+bStiXoHsegnQCzqzU5mMDkp98WBsxE+WdzMtZShmZpBDOIJEIN4U8wgZTR+POIKeQhjRvkXDIEEiEE8AWIQbxpAGJXvDzNs4QfevJbAN8GdADEMggAxiDcGEOYj5kv7T2xVDLz3BHCuRywB4iFa6SJADOKNAYSRnwKwE4A7bNUMvL8NgNno65gAqaPWpLICxCBeBUAY/W73Is+LJ0MYZyTe9VHVBEhVpaYoJ0AM4lUEhDVcCYA5bkPZfcDEnSRVTIBUUWlEGQFiEK8GIKyFV7wdaqtu4P0ud7noOyrEEyAVRBpVRIAYxKsJCGsKcZtV2eI13GWj43ogQMYpNM2/CxCDeB6AsLZ9AfCAVAjjFwCXjgkkQAxKCxCDeJ6AvOiuLw61Z4uJ6JiQbpQJEMMYCxCDeJ6AsMYHAHy8+Mj1hq36gfc5APYaEUuAGEQWIAbxDICw1l8W6yNb2qp/m/dtRcwNpognQAwiCxCDeEZAWDP/8u9ja8LAm99oPV9c/bbopHgCxCCwADGIFwAQ1v5dAEfbmjHwXhnAQwIkkJrKzWvOTTzVdnef0eE+q/N9HKfw2QYAb7YtTTOIQVjNIAbxAs0gbMFrANYFcL+tOQPvowAc5/5PgBhEFSAG8QICwlbMKmaRFWzNeZt3ecuuADGIKkAM4gUGhC35beBbcW90MY8xdFPXQBvEq+rKsxE5mvUPRKh3kGFtuDL+2YBiEQ4B4imo9QGpWq0AqarU7HLHBryqbVljMjrNIPXGzqu0AKkv2y4BTyPWr/0tDwFiUa+irwCpKNSkYqskumRnutYJEL+xq+UlQGrJNSj8LIAl/VyDeQmQYFKODiRA/EWeWSz8reXvbvYUIGYJxwcQIOM1mq5E6CO7dVojQOqo5VlWgHgKN+RmXfDzbYEA8VWuhp8AqSHWNEWZ+IGzSUoTIAnUFiDhRF6+OBz153DhxkYSIGMlshcQIHYNywj/dHcjhos4fSQBkkBpARJW5D8WyRpWDRtyZDQBkkBoARJe5NB7tka1UICEH7s5IgqQOCLzJCJPJMY0ARJTXRdbgMQTeevisNUv4oWfuCCIu5ZztOibbaNXIECSPFdLu0zyMSoTIDFUnRQz1xlkQQC8odbXmPxtTV/ngH7/KT5qvTNgvOFQW0WeoSzNjv4HPnoFmc8gPAfO6wl87N0A+JVrLsZkdFUzvtdp8+EATqzjkLBs9Oc3egWZA8KcVMxN5WNM+nadj2NEnwsA7BE4/kkADgscM1S46M9v9AoyB+RCALt7jhaPsX7T0zemW+g9W8wAuUXMBhtiR39+o1eQOSBsns8DxUW6Bw0DG9vVp09TtekHAL4Yu7GG+NGf3+gVuM6/CmA+gxCxXevqwPeWtWM3yhifs+P3APA2Kh/bv7if/Qwfx0Q+zCU2f+y66j4Yvu15GMBKvs6J/LYrvpG6ukJdZwLYr0K5HIrwDxPfIfiSzQtFqxhPMHLWyHnmYD8eAcBUq1EtFSA3FPmZNo/akzDBzwLAtnJh7LmhkB8EsLpbtf5ImKqSRuGdJMyRxZSkU6U45V/iFQFs7MD4UNLW+VXG/kR/N0oFCG9U2ttPh8a8+NHkdffgLNJYK+JU/ILLBM/f3D7P1EBts5CZ8Uf2PRUg3C/01baNgNqbtQIhc4c1DsiGLgVm1oqrca1SYBMAt8RucaoZhP24CsC2sTuk+L1QIMn7B5VMCUiVG1l7MbrqpFmBAwDw28TolhIQdqYN6wfRRVcFJgUeB7AagJdNUSo6pwbkMwCurdg2FZMCUylwcJFt8rRU0qQGhP3i/iVLOv5U2qie/BTggucRKZvVBCDs38XFZZPMXi6TAlUV4CJn8i95mgKEolxUZC7ftao6KtdrBfgHdbcmFGgSEPb3UAAnN9Fx1dkaBXgW5ZSmWts0IOw3r0A+tykBVG/WCuxVbIU5r8kW5gAI+79ecXyVVxfv3KQYqjsbBZjzawaAO5tuUS6AlDrsCODIYkctt6bI+qfAbUVa1eOLdY7Lc+l6boCUuvCrPM4oy+UilNoRVQEu/nHGOCFqLR7BcwWEXeHBHULCn3k8+iaX/BV4w4FBOJ7Jsbk5A1LqxaOthKSRr/lyHLSOtIlf8xOMe3LuTxsAKfXjkViCwm3OsvYqcLMDg7u7s7c2AVKKeYgDhUdEZe1R4FEHxqntaXLa7e4hdVl86P0k52wpIfvc1ljMPsKPUvzhEd9WWRtnkGGB13CgcLFRlp8CXOQjGPfm17RqLWo7IGUveQUA3082q9ZtlYqswE0OjNYfbegKIOV4H+hAWSXyA6DwUyvwkAPj9K4I1DVAOC5M0cPVeM4oC3VloDLvx0sODK6CMwdXZ6yLgJSDw2OZhGTfzoxWnh1hsj2+Z/D6hc5ZlwEpB4vXFBAU/paFU+B6BwZ/d9b6AEg5eJxJCApnFpm/ApwpOGNw5ui89QkQDiavXCv3d3UtnWjsh5XvFuV6RpKMIrE7VCV+3wApNWFWcIJyUBWRVGYiiwjhYJb+XllfASkHmesm/MZrm16NevXOXuPOZ3Bdo5fWd0DKQedKPGcUrszLZq98c8Zo9LhrDgMhQN4aBe7pKt9PuNerj8a9UuV7BvdQ9d4EyJyPwAoOFGZc6ZMxcwjheKxPnR7XVwEyWiHetsQZZftxIrb83690YES/SqCNOgmQ8aPGk4x8kV9nfNFWlWAicW4N4ck+2QgFBEi1R4Nn4sv3E56Vb7Px7Hf5nsEz4bJpFBAg9R4PZlkhKEkTKNdr4rSlmTWEcDCLiKyCAgKkgkhTFNnAgcI8Xm0w5pkiGLe3obE5tVGA2EaDt2ZxRlnfFiaa9x0OjMui1dDxwAIkzACX509yuU75iaHzGWF62NMoAiTcwC/lZhPCMne4sLUivem+meLHqadqearwlAoIkPAPxroOlNQXBF3iZo27wnepvxEFSLyx38GBslG8KiYi3+rAuCJyPb0ML0DiDzsvgOGL/PKBq5rlwNAFRIGFHQ4nQCKKOxR6iaGFxnmNVb4+tND3vDGW3McoIEDSPiJruiQS+wBYoGbVfwNwoduCPrOmr4p7KiBAPIUzuq0EYO9iRZugvH9MrPscGBcAeNpYr9xrKiBAagoWuDg/bi0NYBn3m//NHFMEgV/Tlj+Bq1W4qgoIkKpKqVwvFRAgvRx2dbqqAgKkqlIq10sFBEgvh12drqqAAKmqlMr1UgEB0sthV6erKiBAqiqlcr1UQID0ctjV6aoKCJCqSqlcLxUQIL0cdnW6qgICpKpSKtdLBQRIL4ddna6qgACpqpTK9VIBAdLLYVenqyogQKoqpXK9VECA9HLY1emqCvwfFHas5097lpAAAAAASUVORK5CYII=;" vertex="1" parent="1">
          <mxGeometry x="383.5" y="250" width="30" height="30" as="geometry" />
        </mxCell>
        <mxCell id="wiMrC1SCOThkHgXVYU3t-9" style="rounded=0;orthogonalLoop=1;jettySize=auto;html=1;entryX=0.75;entryY=0;entryDx=0;entryDy=0;strokeColor=#FFE599;" edge="1" parent="1" source="wiMrC1SCOThkHgXVYU3t-6" target="wiMrC1SCOThkHgXVYU3t-4">
          <mxGeometry relative="1" as="geometry" />
        </mxCell>
        <mxCell id="wiMrC1SCOThkHgXVYU3t-12" value="&lt;font style=&quot;color: rgb(255, 229, 153);&quot;&gt;https://a.xx.cn&lt;/font&gt;" style="edgeLabel;html=1;align=center;verticalAlign=middle;resizable=0;points=[];" vertex="1" connectable="0" parent="wiMrC1SCOThkHgXVYU3t-9">
          <mxGeometry x="-0.0528" y="1" relative="1" as="geometry">
            <mxPoint as="offset" />
          </mxGeometry>
        </mxCell>
        <mxCell id="wiMrC1SCOThkHgXVYU3t-6" value="" style="shape=image;verticalLabelPosition=bottom;labelBackgroundColor=default;verticalAlign=top;aspect=fixed;imageAspect=0;image=data:image/png,iVBORw0KGgoAAAANSUhEUgAAAMgAAADICAYAAACtWK6eAAAAAXNSR0IArs4c6QAAIABJREFUeF7tfQu4HFWV7r+qzwmQEHEAnREihuT0rgoHHMJJVyeAElDeD5XIU0SFhKfXgI/wFBWQ8FAgXBMNRBAVQTSMA0ZBhiGgJOnqREAM6b37JESRO/cyyDgD4ZFzutZM9TnhBnJOUqv6caqrq76Pj3zJv9Ze+9/773rsvdcipFdDGZg4cf/3WlZ/jgg5CxgL0FgG3gXwWFT/H/xd9b9Nfw7ieQXAfw3+f/DP9ApV/45f8YFXiHgFs7/SmFUvNbQDbe6c2rz/de3+hAk9O3V0WFOIaAoY+xGwHwNddW1kC2dUYmCFxfx7n/CU79PTvb2FQFzpVQcGUoHUSKLj5Ht8H0cT8xEg3g+g7Wp0Wav5GwB+z6CHLAtLSqXCqlodtrN9KpAIo79XV667kqGjiXE0Ax+O4KJpJgQ8zoQlmQoveba3uLppDSekoVQgIQcyeJfosPpOYcLRBDo0pFmsYAx+mBhL+v3Ou9euXfZirIKLaTCpQEIMjKPczzNwAYCJIeCtAFlLwM0l432nFYIdyRhTgWyFfSebO56JAmF8aCQHqYFt/5aYby6Vi/c1sI2Wdp0KZIjhm9SVn+pbfCGAE1t6dMMHf6/l001regsrwpu0BzIVyDvG2c66l4FwdXsM/zt6ybhcl71vtmXfh+l0KpBBYpRy/xHA1QQc084ThIFfArjcGO/pduZhU99TgQCws+45g3eNXdJJUWXgrxi4m3yv3floe4E4yr2TgdPbfSIM1X8Cflgy3mfamZu2Foidde8F4YQmT4BgG8hzDH6RQBtAeI2YNjD7G5jotSAWYh5NZI1h4jFgjGbwGAK9F8Ceg3u2mhcy42e67LXLx4oteG1bgTRJHI+A8DDAzzHjOcuidaWS99daZrfjuLv4Pk8gCsRCe4LpIICPrMXnNm3bWCRtKZAGimM9g5YC/ChR5z9p/USwE7fhV3d39459fWMOJcZhIASr/PVf0GxTkbSdQBogjo0MLLaYFpfKhcUNV0OIBpxsfoZPPIOAGQBGhTAJB2lDkbSVQGzbvQiMa8PNhq2jCHiSCT/t788sXrt2eW89fNbbx8SJ07o6OioziHESA5Pr4p9wsdbedXXx1QJO2kYgTteU6WxZ/wIgU+u4MHhuZ+eYa1avXvpqrb6aYd/dPX3Hvr4NlxLokjq0VyHf/2ipd+XSOviKvYu2EMj48dO3327Ua48A2L+2EaFfB+IwxvttbX5Gxlop90MDIqn5pX7ZmxtHf2T9+qXB2ZNEX20hEEe532bgizWNJOEirb3ra/IRE2Pbzl0OpqtqCYeAG0vG+1ItPlrBNvECUSr3EQIFj1bRL7I+pvWK+6M7iJ+lbecvAPNNtUTG4I8aUwzuzIm9Ei8QW7m/BnBE5BEk39F6pY5sH2PDgUcuPF5DiA9q4zV2DaaG4OphmmiBOCo3i0G3RiVKGy/R/GzixVYuR+WIwGeVTPG2qPZxt0vsBFCqZ1dC5gkAKsogVHzq7u0tPBvFttVsurry4zIWPx8xbsOoHJDU9EOJFYij3EsZiHa2gXCi1t7PIk6YljTLZqfmLfIjHZgi4LKS8a5pyY5vI+hECqS7u3tUf9+YpwBMEg9aG4pjE0fBCjwT/1zMGbCmo3PDvqtXr94YwTbWJokUiG27Z4KxSMw84Sdae58S2yXIwLbdu8A4Vdwlwkytve+L7WJukEyBZHOPgmi6kPsKg6cZUywK7RIFVyqXI9By8Y4D5qW6XDw4UWQERw+S1iHbzh0BpuDTruhi0LeNKXxZZJRQsFL5bxFYvghIfKTWxQeTREviBOIo90YGgowkkuulik+Te3sLf5EYJRU7+FXrSQC7SvpIwE0l49W2Y0HSYBOwiROIUu4fCegWcvd9bbyZQptEw23lBu9wZ0o6ycBqY7y9JTZxxyZKIFFXhsni40ql4gNxH6xmxuc4uWPZJ/H2miBXcatu5hyK30QJxM7mrwTxV4UTaY023l5Cm7aA28oNFkpln8qZrtLlwhVJIShZArHdZWBMkwwOga4tmUI9zklImm0JrKPycxl8sSTYoFaJMZ5oDCT+m41NjECibpewfJqWptwcetoNpmANPvmKLrKsPUulFetFRjEFJ0Ygtu2eAMa9Ip4Jj2ntSddLRE20Oti23aVgHCTpBzF/rlQu/kBiE1dscgSicvMBOk9CdHCIyhivpjMRkvZaEauUe2FwOEoSO4N+YEzhcxKbuGKTJJBegETpbhjYN81Bu/Wpmc3m9rWIgjURybVeGy9IctfyVyIEYtsHjAX3yQpXMv5Dl71gIcxv+VFsbAcsW7lBsrt3i5qhznc1Ky+YKC4hOBECUWqaQ6isEfU9oXuHRByEBNvKDc7ViBJeMDKTjFleCtlEbGEJEUiEc+dEt2hdmB3bkYlRYI7K38rgWZKQknJePSECcU8n4E7JACKh27NFHIQEO1n3fzHhlpDwKoyBzxjj/VBiE0dsQgSSv4TAohNtjEzemOVeHAclbjEplT+QwKJcYAy61JjC3Lj1RRpPIgRiZ3M3YaDYZuhrw2uZ0X/5y/LXQxu0MbCnp2f0q69kNogoYL5Zl4vSXdWiJpoBTohA3B+DIDkJmO6/Es4uW7nBC7cd2oxxly57p4XGxxSYFIE8CMLhAo4Tn89JwEUoqDi/GOMhXfai5yMLFVXjQckQiJ1bBab9wtLF4HuMKZ4SFp/iAKVydxPo5NBcEP9e62JPaHxMgckQiHL/DOD9oTlmfFeXPdG2lNC+Ewq0s+4CEM4VdO95bbw9BPhYQpMikKC23w5hGR7I0F68NCw+xVXvINcIyye8ro03utW5a3mBBLUv+vtek5U6Y8zRZe+GVh+8ZsZvZ92vgCDKbt/ROXpsq9RQGY7LlheIbbt7grFOMlkYfJZJcD5ZCRdhsUrlZpE0zzFhgtbec2HbiCOu5QUymMdJtuBHdILWhSgZBOM4hk2JybbznwSzKB0rg91WzzOWBIGI63/47B9aLq+srWZIU6ZlfBrJZqd81CLrYUlESdiP1fICyWbdoy3CLyUDRxYfUCoVl0ls2h3rOLn92adgV2/oy2ccUy57S0IbxBDY8gJxsrnjmUhUftnyrZ41vSt+H8PxiG1Ik7qm7udb/ipJgMQ8o1Qu3iexiRs2AQJxT2HCTyTEtlPtDwkvW8N2deX3yli8WuKPGKeWyt7dEpu4YVteIHY29zkQ3S4h1md/Yrm8UvTlS+I/idhsdsoEi6y1or4xn6HLxTtENjEDJ0Ag7jkgfFfEK/XtrvWT/0dk0+Zg2568G7jzBRENjHN12fueyCZm4NYXiJ2fDeabJbx2dGZ2Wb16+csSm3bHdndP27m/rxKcTQ9/EV2gdWFeeIP4IRMgEHcOGNdJqN3xlcqYVf+2Ktiekl4hGeh5X8/oV8cKz4QkoLZ8ywtEqfwVBP5GyHGuwrTxMmk2EwljVWyQ3aQisWLQ14wpXCmxiRu25QVi2/kLwCxK/kYWdi2VPNnjQtxGrsnxOI67C/t4SdQs0YVaF0SPvyL/TQC3vECcrHsqE+6ScEVW5YOl0qpnJDbtjnWcnn3Yz/xBwgMxPlUqe6JP8BL/zcC2vEAmZfOH+sS/kZBFPh1e6i2IbCT+k4h1uvKHscUPSfpmMR22plwQbU+R+G8GtuUFEiU1ZpKSKzdjkgRtONncZ5lItKbhM08ul4tBOe6WvVpeIEpN251QEdUWJNClpQSkpGnmrHNU/hKWp1YaZ8xy2dpJMzsVoq2WF0hPT0/nq69kpAXsF2njiTIFhuAy0RBbubcBENVx3HFsZdSqVav6WpmYlhdIQL6t8usB/kDogUjz8oamahPQFteepz9pUxgvbihmBskQSNaVpv15QRtvXMzGItbh2MoNHmN3Dx1kmvYnNFUNB6aZFRtL8bhx03YYM7oi23mQZlZs7KBIvDsqfxaDF0psQPSPWhdE3/VF/hMEtu38B8H8tKRLBDq7ZAq3SmziiE3EI1ak+uhpdvfQ8zHKD1BS6qUnRCA9uxIy/x56xKtA+qk2hfCZAmXOE4W2bfd+MI6VdIpReY8xq2RbUyQNNAmbCIEEXDnKLTPQFZq3gRJsO4fGtzHQVu7fAOwkoOA5bbwJAnxsoQkSSO47DDpfwnQSsm5I+hsF62TdY5jwgND2+9p4ojUTof+mwRMjENvOfwzMv5Awx8A1xniXSWzaDWvb7vVgfEXS7yRsUtzU38QIpKtr8nsyVueLkoEEyNOmkJfZtBfaVvkCwK6k1x2d/L7Vq4v/V2ITV2xiBBIQbCv3EQCHSMgm3z+41LtyqcSmXbBO15TpbFmPCvu7TBvvAKFNbOHJEkg2dyWIviphm4CbSsb7osSmXbCOcm9kQFRGjcBzSwnKnJ8ogTiOezj7eFA4gdftOLbitPqmOmGftwkf3AQalF2TfY0iPlLronQMthnPSAESJZCBx6z8GoAdCaHE9MlSuSDKzijx34pYJ5ufwcTCBN9U0qYwqRX7O1zMiROIUvlvEfhLwkH6kTbe6UKbRMNt5QY1zj8t6SSDvm1M4csSm7hjEycQ284fDOZ/lRJPFk0plQqi3LPSNloF7zj5HvZ5pTheokO0Lkhf6sXNNNMgcQIZeMxynwSwr4RIBt9qTPFsiU1SsUrlFhLoLGH/ntLGmyy0iT08mQKx3avBEC8ApncRIPrdA9/U2rs89jNeGGAiBTKpKz/Vt3i5kAukd5Fqsc4odw9YPk1b01tYIeU87vhECmTwMevXAMSF7Nv5LhL57gE8qI13ZNwne5T4EisQpfInEzhKbYq2TegQJTFDMOkYdIoxhXuiTMC42yRWIAHxSrnLCZgqHYR23H4ScVsJGFhhjDdNynGr4BMtEDsboXbIwC/ifcYUZrTKINYjTqXyiwl8vNhXAmqAbK3PiRbI+PHTt99u1OtPSlfWA8KSUF8v7GSPUudxwDeV3ty4w+T165e+EbatVsMlWiADj1m5iwk0VzwwbZQ7S57zaoBNBl9iTPFaMbctZJB4gXR35/6hv488AO+XjgsDs4zxFkntWgmvlDuTgCBrovR6vqOT3aSc+xiu84kXSNDxKDVEBn8i/1zhyiG9vatkxSulU22E8F1dPRMzlPlXEPYQh5CA2h9h+twWAqmKROV/B7D8IA/jLl32TgtDZqth7Kz7YxA+JY+bntCmcKDcrvUs2kYg0V9Eqw/bLV+t9Z1TM+oXvuqrOfOMUrl4X+tNd3nEbSOQgRd29ycEnCKnCS9mfD7k2d7i6gi2sTPZqyvXXbEo2PH8XmlwDNxtjHeq1K5V8W0lkMGtFMsAjJIOWJLWRiKveQAbyaL92+lYQFsJJBCFo/JzGXyxVCCDL+1zdNm7IZJtTIzsrPsVEK6PEg6Bri2ZwiVRbFvVpu0Ess8+B/7dxjc2Pg7C3lEGjeEfZczKYCNky11KTTmSYP0qUuCMP47aftSHn3nmd/8Ryb5FjdpOIAPvIrmTCBRpcx0Bz/ZV+Ii1a4vPt9KYT5yYe39nhh5kYK8ocTP4ZGOKP41i28o2bSmQYMBs5QYLgGdGHLx7tfFOimg7Ima2coPJfWLExhOTSlTa//YViO3uCcZjUVbYqyQTXaF14Sop4SOBt+38V8F8ZcS2nwfhIK295yLat7RZ2wokGLUodS82H+1WWA+oaf0n+B1ISCGcqCpta4FUH7Xs3M/BFHVr+wsgOiqulaoGashbSwDeLdIEIV6sdfGTkWwTYpQKZKC8WJAJ8H2RxpR5KaxRx2n9xCuR7BtkZNsHjAX3BV+sIm0JYeD/EdFhcRV/g2jbwm3bC6T6qJV1T2HCT2ogPXbHdB3l3slA5GR4DDrdmMKPauAkEaapQAaH0bbzV4E5etoawkVae5EW4Oo9k5TKX0Hgb0T2S/wtrYuimiCR24q5YSqQzQbIUe59DHwi8pgRn6R18d7I9nUwtO3caWCK/MvPwBJjvGPqEEoiXKQC2WwYu7rye2UsDnap2hFH9wWGf7wxK4MDWk2/HCe3P/vWz6K+lDPQS0Qz2v29421fKps+ijFv0LbdE8CIfhcgPNbf33Hi2rXLhNWuaiNm7z3zf9/XWc3GHumlPGg9yel7orKb3kGGYE4p9+sEfC0qqQzcaYz32aj2UexqfynHN4zxvh6l7STbpALZbHRt253CjFsJqDkJM6N5E65WQW+igIHHLQuzSiXPJHnSS/qWCmSQLUe5lzLwTQl5w2EJuKxkvGvq4Susj3rGz6DPG1OYH7btJOPaXiC27R4Cn2aD+Li6DDRhjtYjc2bEyea/zMT1Oa/CdD8snqe1J661UhceY+KkbQUSfLGyLH92hDoYww9dDDJ92NncF0A0r17zK8h47/vWvN7ewrP18tlKftpOIN3d03au9PXPZtAFAN5Vr8GK02OJbefOBdOCevUNwH8R+OZMZ8e81auXv1xHv7F31VYCUSp3HoFmB2em6jkycdzxqlRuFoFurWc/ARgGzzOmWE/x1TnE+rprC4Eolf80wOdFyfS+TbqZztDlwh3bxI0AwMnmPstEdY8tyOgO0IJ22KuVaIFks7njLaLzAHykIfOT+DSti3c1xHednNp27lNg+nGd3L3TzSM+84JygnNkJVIgjuMezhU+D0T1+TK15ex6GcTnjvS+q7CT3rZzJ4LpuwB2DmsjwjHfTxlaUCp5D4nsWgCcKIEolT9w8FEqSnK4UMNFQKHC1uxyeUUhlEFMQNns1HyG/HkM5BsVUpBUbvDR63eNaqPZfhMhkK6uKZMzlhU8Ss1sKIGMuzpGZb7Qql9ygi94/Rsrt0TLxytidlHF9xf09q4MynG39NXSAnEcVw0+SgXi6GzgSLzOwPVJ2as0uDVlDoAdGshZH5gXDD56tezWlZYUiFLTdgcqwVepQBjvbuAgB1tcf0YZui5p6TaraVgrfBEIJzSUP+BvDCwAMguMWf5Cg9uqu/uWEsheE3r2qGQ6ZoI4eJSKdoY8JIUMrAbouqR/yhz8BH4RAd0hqYkK+zcwLcpU+hc9u27Vn6M6abZdSwgkKPTSYXXMZFSFsWvDSWJcN2r7Ude1S5rNwXSswd3kooZzC7xEoEX9fv+iVihMFGuB2PYUG8jMBPMsADs1YfAWgbBQa29lE9qKXRPBdn8wzm74x46Bnv8niG4DKou0XqljR8ZgQLEUyKRJU/b2+zObHqXGNJw85juYOr5nzPIROSrb8P4JG1Bqmkvcfw6IPic0jQLfEDx6WR2VRWvWrPxjFAeNtImVQAY+12ZmYuBRSlzDQ0oUAXfCwsJSyVsutW0HvOO40+DjbAY+04T+bgRoUcWvLIrT5+FYCKT6uTY4kwE+t5rtsuEX/ZiBhcYUErOg1UjKggVYQvDoxc2o1fg/hzHpu2TxvDicbGzCZBx+6CZM6Nmpo6NjNoGDHbaN2QaxWfPBSq/l88JSbzFIWp1eQgacrtxBvkVnRyxjJ2wNLzNoXn9//7x161b9p9S4XvgRE4iTdc9mQiCMSfXqzFb83Dv48t3Wp+PqxXP1FObAy3zUcgqSUNYQY16p7C2UGNUL23SB2Hb+Y/D9C0A0vV6dGNYP8WLLtxauKRcebnhbbdjApGz+UN/yz64h+Xd41qo5kK2btS78c3ij2pFNE8ikrvxUtvzgJN/JtYe9TQ+/APFCrYtBUur0ajADtp07AkzBHeXjDW4KBL6HfGvemt7Cika3FfhvuEC6urq2y2R2ubymvLdhmWA8wETfM6YQrQ5f2HZS3JAMKJU/ipjPAeHYhlNEdHWl8tere3t732xkWw0ViJN1jwHh8kZusR5QOf2LD55vjPeLRpKV+g7HgFLuxy3Q+Qz+aDiLaKjg6AEYV5fK3i+jedi2VUME0tU1+T2ZzKjgrvGFbYdQA4KwHOD5cT/VV0MPW9q0epoRdD4Y0xraEaJbKpWNV/f2Pvnv9W6n7gJxsu6pTAjKCDTw6xQ/Q0zzR+rLRr0HIen+Br5Y8vkA7dPAvgZfu4K7SS11XrYIr24CGTdu2g6jR/sLCNzInLTrCLzgjY1j5q9fv/SNBpKduq4zA+PHT99++1EbzmdUcwRMqLP7t9wx6AdEHV+oV8WvugjEtg/YDei7A4zDGtTxFxk037J4fqnk/bVBbaRum8CA47i7+D6dTwjuKHhvI5oM3k18ZD5rzPJSrf5rFkh1Y2HF+jWAcbUGM4T9BhAWWFbH/DVrlv2pAf5TlyPEwKRJ+3/A9/uD95PgjtKIDakvM/hEY4qP1NLFmgSSzeY+bBE1aNsGLaj4mN+uKS9rGdRWsh0oWoTzg2QbjYg72GhpjPfDqL4jC0Qp90ICboza8HB2BPzQhz9/pKo01bs/qb9wDCg1xbVgnV9L4dHhWmLQpcYU5oaL5O2oSAJxlPt5Bv53lAaHtSFeHKSMafds4nXltAWdVfd5BXeT6LXrh+w1g082pvhTKSVigTjZ/AymaqmvOl30BIiu13rF/XVymLpJAAO2PfU4MM8B+IB6dYeRyUsPxYkEEhygYR/L6hTwSyDcEJfSyXXqU+qmzgzYtjsHjKAkdV1yEZAFW3LOJLRAHGfqeK74j4GwR80cMG6H5V8f57PINfcxdVA3Bqq5CXxrDghn1MHp0xW/79Cwq+6hBNLd3T2qv29MsDP24NoCTB+nauOvva3r9dgV1ILfbbfRH1+6dGn/thgNJRClctcQ6JJtOdvavwdfvErG+1ItPlLblIGAAVu5iwCcWQsbDJ5rTPHSbfnYpkCy2dy+FlHw3hE9TSXRmVoXbt9WMOm/pwyEZcBR+bkMvjgsfgjc6z7z/uVy8alt/LBvvQml3B9QDVktGH4+XdOoYRhT02EZsG33BDDujUpRmHr2W72DKDX1SIIf+fDRdtu/seMf/vCHDVE7kNqlDGyLgWpWyDc3Rq6byLCOMmZFsFVqyGsbAsn9hkCHbivIYTx/JF30i8RcaiRkQKlpDqGyRmhWhTP4YWOKw26yHVYgtu2eCUbwMiS+glV2Y7zGHpYSR5UaJJkBpdzTq4kAo1yEmVp73x/KdFiBOMp9jIEPi9sjPKC116jSZ+JwUoP2YcBRue9wcIJReBHweMl4B4UWiNOVP4wtjlBvjp/pr+DotWuLzwtjTOEpAzUzoFTProRMkC3Tljojnw4v9RZ+8067Ie8gtp2/HczixMW1bi2WdirFpwy8kwHbzp8B5iEfl7bKFtEdWhe2WKnfQiBBLY6MlXkmwrrHg9p4R6ZDljIw0gzY2dw/R6hw/HrFr+zzzpolWwjEzrqXgXC1uJPER6aJ2sSspQYNYMC2pxwAtuSJyRmX67L3zc1DGkogz4CwtyTu4JBTyXjNSJEvCSvFtjEDtsr/SJyNnvFHXfbelnnlbQKx7fzBYBYneGawa0yx2MbjkXY9ZgwMpkMddgFw2HCJDtG68Oimf3+7QLK5K0H0VWFff6GN9wmhTQpPGWg4A7Zygx972Q505qt0uXjF0AJR7m8BHCiKnPgkrYuR98OI2krBKQMCBiJ+0fqdNt6HthDIpEn5rF9hacH3p7Xx9hXEnEJTBprGwPjx+757u1GjggKhovxbVobUmjWFchDoW49YjsqfxWBZkRLCxVp71zWtx2lDKQNCBqKcHSHQ2SVTuPUdAsndLa3dwchMqkf2OmGfU3jKQGgGgkzzBPxTaIPqXYPvKZniKW8TiK3cdQD2FDh6ShtvsgCfQlMGRoCBEzK2+lPwmDUxdOOEP2vtfeAtgQxkt+PVoR0EQOabdbl4ocgmBacMjAADtnKDzIqfljTNwL7GeE9X30FsO38amH8kdPCJtGCNhLEUO1IMONn8l5n4Bkn7xDgnKK8xIBCVm4+BtPShrzc3bvy79euf+ltogxSYMjBCDETanU58h9bFMwYF4j4N4IOC+J/Xxqs9P5agwRSaMhCVgQkTenbq7MiIfswJeLZkvG6qFtm0dhYVowlqApZMIdpR3Ki9TO1SBmpgwFbimwAq/svbUzY7ZYJF1lpZ27xAm6L45JasjRSdMlA/BqK8qPvsTySl8gcSONhiEv5inq3LxVvCG6TIlIGRZSBKRQIGfYiUyp1EoHsk4ZOFI0olL8KRXEkrKTZloH4MBPVHCFZB4jEomUBKuV8k4NsSQxAmaO09J7JJwSkDI8yArVyWhMDAl8i23esH08uHtd2ojbddWHCKSxmICwO2cl8CsEvoeAg3BO8gd4hKNw9x6ip0gykwZWAEGbCVG2w5UWFDqJaUtpW7BMBRYY3AeEiXvSNC41NgykBMGLBtd9n/zN9pgnB+FQjEA5ATGN2rjXeSAJ9CUwZiwYBS7gMEHCMIphgIJHjZHh/WiEC3lUzhrLD4FJcyEBcGHOXeKayiuz4QyKuiQu7E39K6GNSMS6+UgZZiwFHujQxIdqBvCATymiRJHIGuLZlCTdWmWorVNNjEMCD+Ykt4LRDIXwDsHpaFzU9bhbVJcSkDcWDAtvM/B/OMsLEw8HwgEOlOXpDvH1zqXbk0bEMpLmVgpBmoVsplqySJg4Enyc7mHgXRdIlhFUu+k5ZxFrOWGowAA07XlOlsWW8lgwsbAoPuC1bSIxfKAdFigNcxI3iPSa+UgVgxYIG2A/zx0mQkmzrBwCzaa0LPHpWOzJ9i1bM0mJSBGDDAyIwbPJPu3g/GsTGIKQ0hZSAeDAxWSqsKxMm6xzDhgXhElkaRMjDyDBDj2FLZ++VbmRVtO72LjPywpBHEgoHN6mz+/9Sj6V0kFmOTBjHyDGy6e1Q/1m4ejp11rwNhzsiHmEaQMjAyDDD4LGOKt21qfcsKU9Lt7yPTj7TVlIH6M8C4XZe9Mzd3PHSVW+UuAvA2YP2jST2mDMSIAealulzcotjOkAIJwlbK/ToBX4tRF9JQUgYaxcAibbxZQzkfViABeLBmSHD2o6dRkaV+UwZGkIFVBLp1Uy0QsUA2GQwIJXjkYncEO5M2nTJQFwYIKAB0+9aEMexL+tYiqOYWIus4ME8HaGcCdmZgZwCddYnnySljAAAAIElEQVQ8dZIyUF8G+gh4mYGXAX6ZQL/ygSVBWYOwzfw3B7/nbm1DZKEAAAAASUVORK5CYII=;" vertex="1" parent="1">
          <mxGeometry x="414" y="100" width="30" height="30" as="geometry" />
        </mxCell>
        <mxCell id="wiMrC1SCOThkHgXVYU3t-10" style="rounded=0;orthogonalLoop=1;jettySize=auto;html=1;exitX=0.5;exitY=1;exitDx=0;exitDy=0;entryX=0.25;entryY=0;entryDx=0;entryDy=0;strokeColor=#FF6A00;" edge="1" parent="1" source="wiMrC1SCOThkHgXVYU3t-7" target="wiMrC1SCOThkHgXVYU3t-4">
          <mxGeometry relative="1" as="geometry" />
        </mxCell>
        <mxCell id="wiMrC1SCOThkHgXVYU3t-13" value="&lt;font style=&quot;color: rgb(255, 106, 0);&quot;&gt;https://b.xx.cn&lt;/font&gt;" style="edgeLabel;html=1;align=center;verticalAlign=middle;resizable=0;points=[];" vertex="1" connectable="0" parent="wiMrC1SCOThkHgXVYU3t-10">
          <mxGeometry x="-0.0504" y="-1" relative="1" as="geometry">
            <mxPoint as="offset" />
          </mxGeometry>
        </mxCell>
        <mxCell id="wiMrC1SCOThkHgXVYU3t-7" value="" style="shape=image;verticalLabelPosition=bottom;labelBackgroundColor=default;verticalAlign=top;aspect=fixed;imageAspect=0;image=data:image/png,iVBORw0KGgoAAAANSUhEUgAAAMgAAADICAYAAACtWK6eAAAAAXNSR0IArs4c6QAAIABJREFUeF7tfQu4HFWV7r+qzwmQEHEAnREihuT0rgoHHMJJVyeAElDeD5XIU0SFhKfXgI/wFBWQ8FAgXBMNRBAVQTSMA0ZBhiGgJOnqREAM6b37JESRO/cyyDgD4ZFzutZM9TnhBnJOUqv6caqrq76Pj3zJv9Ze+9/773rsvdcipFdDGZg4cf/3WlZ/jgg5CxgL0FgG3gXwWFT/H/xd9b9Nfw7ieQXAfw3+f/DP9ApV/45f8YFXiHgFs7/SmFUvNbQDbe6c2rz/de3+hAk9O3V0WFOIaAoY+xGwHwNddW1kC2dUYmCFxfx7n/CU79PTvb2FQFzpVQcGUoHUSKLj5Ht8H0cT8xEg3g+g7Wp0Wav5GwB+z6CHLAtLSqXCqlodtrN9KpAIo79XV667kqGjiXE0Ax+O4KJpJgQ8zoQlmQoveba3uLppDSekoVQgIQcyeJfosPpOYcLRBDo0pFmsYAx+mBhL+v3Ou9euXfZirIKLaTCpQEIMjKPczzNwAYCJIeCtAFlLwM0l432nFYIdyRhTgWyFfSebO56JAmF8aCQHqYFt/5aYby6Vi/c1sI2Wdp0KZIjhm9SVn+pbfCGAE1t6dMMHf6/l001regsrwpu0BzIVyDvG2c66l4FwdXsM/zt6ybhcl71vtmXfh+l0KpBBYpRy/xHA1QQc084ThIFfArjcGO/pduZhU99TgQCws+45g3eNXdJJUWXgrxi4m3yv3floe4E4yr2TgdPbfSIM1X8Cflgy3mfamZu2Foidde8F4YQmT4BgG8hzDH6RQBtAeI2YNjD7G5jotSAWYh5NZI1h4jFgjGbwGAK9F8Ceg3u2mhcy42e67LXLx4oteG1bgTRJHI+A8DDAzzHjOcuidaWS99daZrfjuLv4Pk8gCsRCe4LpIICPrMXnNm3bWCRtKZAGimM9g5YC/ChR5z9p/USwE7fhV3d39459fWMOJcZhIASr/PVf0GxTkbSdQBogjo0MLLaYFpfKhcUNV0OIBpxsfoZPPIOAGQBGhTAJB2lDkbSVQGzbvQiMa8PNhq2jCHiSCT/t788sXrt2eW89fNbbx8SJ07o6OioziHESA5Pr4p9wsdbedXXx1QJO2kYgTteU6WxZ/wIgU+u4MHhuZ+eYa1avXvpqrb6aYd/dPX3Hvr4NlxLokjq0VyHf/2ipd+XSOviKvYu2EMj48dO3327Ua48A2L+2EaFfB+IwxvttbX5Gxlop90MDIqn5pX7ZmxtHf2T9+qXB2ZNEX20hEEe532bgizWNJOEirb3ra/IRE2Pbzl0OpqtqCYeAG0vG+1ItPlrBNvECUSr3EQIFj1bRL7I+pvWK+6M7iJ+lbecvAPNNtUTG4I8aUwzuzIm9Ei8QW7m/BnBE5BEk39F6pY5sH2PDgUcuPF5DiA9q4zV2DaaG4OphmmiBOCo3i0G3RiVKGy/R/GzixVYuR+WIwGeVTPG2qPZxt0vsBFCqZ1dC5gkAKsogVHzq7u0tPBvFttVsurry4zIWPx8xbsOoHJDU9EOJFYij3EsZiHa2gXCi1t7PIk6YljTLZqfmLfIjHZgi4LKS8a5pyY5vI+hECqS7u3tUf9+YpwBMEg9aG4pjE0fBCjwT/1zMGbCmo3PDvqtXr94YwTbWJokUiG27Z4KxSMw84Sdae58S2yXIwLbdu8A4Vdwlwkytve+L7WJukEyBZHOPgmi6kPsKg6cZUywK7RIFVyqXI9By8Y4D5qW6XDw4UWQERw+S1iHbzh0BpuDTruhi0LeNKXxZZJRQsFL5bxFYvghIfKTWxQeTREviBOIo90YGgowkkuulik+Te3sLf5EYJRU7+FXrSQC7SvpIwE0l49W2Y0HSYBOwiROIUu4fCegWcvd9bbyZQptEw23lBu9wZ0o6ycBqY7y9JTZxxyZKIFFXhsni40ql4gNxH6xmxuc4uWPZJ/H2miBXcatu5hyK30QJxM7mrwTxV4UTaY023l5Cm7aA28oNFkpln8qZrtLlwhVJIShZArHdZWBMkwwOga4tmUI9zklImm0JrKPycxl8sSTYoFaJMZ5oDCT+m41NjECibpewfJqWptwcetoNpmANPvmKLrKsPUulFetFRjEFJ0Ygtu2eAMa9Ip4Jj2ntSddLRE20Oti23aVgHCTpBzF/rlQu/kBiE1dscgSicvMBOk9CdHCIyhivpjMRkvZaEauUe2FwOEoSO4N+YEzhcxKbuGKTJJBegETpbhjYN81Bu/Wpmc3m9rWIgjURybVeGy9IctfyVyIEYtsHjAX3yQpXMv5Dl71gIcxv+VFsbAcsW7lBsrt3i5qhznc1Ky+YKC4hOBECUWqaQ6isEfU9oXuHRByEBNvKDc7ViBJeMDKTjFleCtlEbGEJEUiEc+dEt2hdmB3bkYlRYI7K38rgWZKQknJePSECcU8n4E7JACKh27NFHIQEO1n3fzHhlpDwKoyBzxjj/VBiE0dsQgSSv4TAohNtjEzemOVeHAclbjEplT+QwKJcYAy61JjC3Lj1RRpPIgRiZ3M3YaDYZuhrw2uZ0X/5y/LXQxu0MbCnp2f0q69kNogoYL5Zl4vSXdWiJpoBTohA3B+DIDkJmO6/Es4uW7nBC7cd2oxxly57p4XGxxSYFIE8CMLhAo4Tn89JwEUoqDi/GOMhXfai5yMLFVXjQckQiJ1bBab9wtLF4HuMKZ4SFp/iAKVydxPo5NBcEP9e62JPaHxMgckQiHL/DOD9oTlmfFeXPdG2lNC+Ewq0s+4CEM4VdO95bbw9BPhYQpMikKC23w5hGR7I0F68NCw+xVXvINcIyye8ro03utW5a3mBBLUv+vtek5U6Y8zRZe+GVh+8ZsZvZ92vgCDKbt/ROXpsq9RQGY7LlheIbbt7grFOMlkYfJZJcD5ZCRdhsUrlZpE0zzFhgtbec2HbiCOu5QUymMdJtuBHdILWhSgZBOM4hk2JybbznwSzKB0rg91WzzOWBIGI63/47B9aLq+srWZIU6ZlfBrJZqd81CLrYUlESdiP1fICyWbdoy3CLyUDRxYfUCoVl0ls2h3rOLn92adgV2/oy2ccUy57S0IbxBDY8gJxsrnjmUhUftnyrZ41vSt+H8PxiG1Ik7qm7udb/ipJgMQ8o1Qu3iexiRs2AQJxT2HCTyTEtlPtDwkvW8N2deX3yli8WuKPGKeWyt7dEpu4YVteIHY29zkQ3S4h1md/Yrm8UvTlS+I/idhsdsoEi6y1or4xn6HLxTtENjEDJ0Ag7jkgfFfEK/XtrvWT/0dk0+Zg2568G7jzBRENjHN12fueyCZm4NYXiJ2fDeabJbx2dGZ2Wb16+csSm3bHdndP27m/rxKcTQ9/EV2gdWFeeIP4IRMgEHcOGNdJqN3xlcqYVf+2Ktiekl4hGeh5X8/oV8cKz4QkoLZ8ywtEqfwVBP5GyHGuwrTxMmk2EwljVWyQ3aQisWLQ14wpXCmxiRu25QVi2/kLwCxK/kYWdi2VPNnjQtxGrsnxOI67C/t4SdQs0YVaF0SPvyL/TQC3vECcrHsqE+6ScEVW5YOl0qpnJDbtjnWcnn3Yz/xBwgMxPlUqe6JP8BL/zcC2vEAmZfOH+sS/kZBFPh1e6i2IbCT+k4h1uvKHscUPSfpmMR22plwQbU+R+G8GtuUFEiU1ZpKSKzdjkgRtONncZ5lItKbhM08ul4tBOe6WvVpeIEpN251QEdUWJNClpQSkpGnmrHNU/hKWp1YaZ8xy2dpJMzsVoq2WF0hPT0/nq69kpAXsF2njiTIFhuAy0RBbubcBENVx3HFsZdSqVav6WpmYlhdIQL6t8usB/kDogUjz8oamahPQFteepz9pUxgvbihmBskQSNaVpv15QRtvXMzGItbh2MoNHmN3Dx1kmvYnNFUNB6aZFRtL8bhx03YYM7oi23mQZlZs7KBIvDsqfxaDF0psQPSPWhdE3/VF/hMEtu38B8H8tKRLBDq7ZAq3SmziiE3EI1ak+uhpdvfQ8zHKD1BS6qUnRCA9uxIy/x56xKtA+qk2hfCZAmXOE4W2bfd+MI6VdIpReY8xq2RbUyQNNAmbCIEEXDnKLTPQFZq3gRJsO4fGtzHQVu7fAOwkoOA5bbwJAnxsoQkSSO47DDpfwnQSsm5I+hsF62TdY5jwgND2+9p4ojUTof+mwRMjENvOfwzMv5Awx8A1xniXSWzaDWvb7vVgfEXS7yRsUtzU38QIpKtr8nsyVueLkoEEyNOmkJfZtBfaVvkCwK6k1x2d/L7Vq4v/V2ITV2xiBBIQbCv3EQCHSMgm3z+41LtyqcSmXbBO15TpbFmPCvu7TBvvAKFNbOHJEkg2dyWIviphm4CbSsb7osSmXbCOcm9kQFRGjcBzSwnKnJ8ogTiOezj7eFA4gdftOLbitPqmOmGftwkf3AQalF2TfY0iPlLronQMthnPSAESJZCBx6z8GoAdCaHE9MlSuSDKzijx34pYJ5ufwcTCBN9U0qYwqRX7O1zMiROIUvlvEfhLwkH6kTbe6UKbRMNt5QY1zj8t6SSDvm1M4csSm7hjEycQ284fDOZ/lRJPFk0plQqi3LPSNloF7zj5HvZ5pTheokO0Lkhf6sXNNNMgcQIZeMxynwSwr4RIBt9qTPFsiU1SsUrlFhLoLGH/ntLGmyy0iT08mQKx3avBEC8ApncRIPrdA9/U2rs89jNeGGAiBTKpKz/Vt3i5kAukd5Fqsc4odw9YPk1b01tYIeU87vhECmTwMevXAMSF7Nv5LhL57gE8qI13ZNwne5T4EisQpfInEzhKbYq2TegQJTFDMOkYdIoxhXuiTMC42yRWIAHxSrnLCZgqHYR23H4ScVsJGFhhjDdNynGr4BMtEDsboXbIwC/ifcYUZrTKINYjTqXyiwl8vNhXAmqAbK3PiRbI+PHTt99u1OtPSlfWA8KSUF8v7GSPUudxwDeV3ty4w+T165e+EbatVsMlWiADj1m5iwk0VzwwbZQ7S57zaoBNBl9iTPFaMbctZJB4gXR35/6hv488AO+XjgsDs4zxFkntWgmvlDuTgCBrovR6vqOT3aSc+xiu84kXSNDxKDVEBn8i/1zhyiG9vatkxSulU22E8F1dPRMzlPlXEPYQh5CA2h9h+twWAqmKROV/B7D8IA/jLl32TgtDZqth7Kz7YxA+JY+bntCmcKDcrvUs2kYg0V9Eqw/bLV+t9Z1TM+oXvuqrOfOMUrl4X+tNd3nEbSOQgRd29ycEnCKnCS9mfD7k2d7i6gi2sTPZqyvXXbEo2PH8XmlwDNxtjHeq1K5V8W0lkMGtFMsAjJIOWJLWRiKveQAbyaL92+lYQFsJJBCFo/JzGXyxVCCDL+1zdNm7IZJtTIzsrPsVEK6PEg6Bri2ZwiVRbFvVpu0Ess8+B/7dxjc2Pg7C3lEGjeEfZczKYCNky11KTTmSYP0qUuCMP47aftSHn3nmd/8Ryb5FjdpOIAPvIrmTCBRpcx0Bz/ZV+Ii1a4vPt9KYT5yYe39nhh5kYK8ocTP4ZGOKP41i28o2bSmQYMBs5QYLgGdGHLx7tfFOimg7Ima2coPJfWLExhOTSlTa//YViO3uCcZjUVbYqyQTXaF14Sop4SOBt+38V8F8ZcS2nwfhIK295yLat7RZ2wokGLUodS82H+1WWA+oaf0n+B1ISCGcqCpta4FUH7Xs3M/BFHVr+wsgOiqulaoGashbSwDeLdIEIV6sdfGTkWwTYpQKZKC8WJAJ8H2RxpR5KaxRx2n9xCuR7BtkZNsHjAX3BV+sIm0JYeD/EdFhcRV/g2jbwm3bC6T6qJV1T2HCT2ogPXbHdB3l3slA5GR4DDrdmMKPauAkEaapQAaH0bbzV4E5etoawkVae5EW4Oo9k5TKX0Hgb0T2S/wtrYuimiCR24q5YSqQzQbIUe59DHwi8pgRn6R18d7I9nUwtO3caWCK/MvPwBJjvGPqEEoiXKQC2WwYu7rye2UsDnap2hFH9wWGf7wxK4MDWk2/HCe3P/vWz6K+lDPQS0Qz2v29421fKps+ijFv0LbdE8CIfhcgPNbf33Hi2rXLhNWuaiNm7z3zf9/XWc3GHumlPGg9yel7orKb3kGGYE4p9+sEfC0qqQzcaYz32aj2UexqfynHN4zxvh6l7STbpALZbHRt253CjFsJqDkJM6N5E65WQW+igIHHLQuzSiXPJHnSS/qWCmSQLUe5lzLwTQl5w2EJuKxkvGvq4Susj3rGz6DPG1OYH7btJOPaXiC27R4Cn2aD+Li6DDRhjtYjc2bEyea/zMT1Oa/CdD8snqe1J661UhceY+KkbQUSfLGyLH92hDoYww9dDDJ92NncF0A0r17zK8h47/vWvN7ewrP18tlKftpOIN3d03au9PXPZtAFAN5Vr8GK02OJbefOBdOCevUNwH8R+OZMZ8e81auXv1xHv7F31VYCUSp3HoFmB2em6jkycdzxqlRuFoFurWc/ARgGzzOmWE/x1TnE+rprC4Eolf80wOdFyfS+TbqZztDlwh3bxI0AwMnmPstEdY8tyOgO0IJ22KuVaIFks7njLaLzAHykIfOT+DSti3c1xHednNp27lNg+nGd3L3TzSM+84JygnNkJVIgjuMezhU+D0T1+TK15ex6GcTnjvS+q7CT3rZzJ4LpuwB2DmsjwjHfTxlaUCp5D4nsWgCcKIEolT9w8FEqSnK4UMNFQKHC1uxyeUUhlEFMQNns1HyG/HkM5BsVUpBUbvDR63eNaqPZfhMhkK6uKZMzlhU8Ss1sKIGMuzpGZb7Qql9ygi94/Rsrt0TLxytidlHF9xf09q4MynG39NXSAnEcVw0+SgXi6GzgSLzOwPVJ2as0uDVlDoAdGshZH5gXDD56tezWlZYUiFLTdgcqwVepQBjvbuAgB1tcf0YZui5p6TaraVgrfBEIJzSUP+BvDCwAMguMWf5Cg9uqu/uWEsheE3r2qGQ6ZoI4eJSKdoY8JIUMrAbouqR/yhz8BH4RAd0hqYkK+zcwLcpU+hc9u27Vn6M6abZdSwgkKPTSYXXMZFSFsWvDSWJcN2r7Ude1S5rNwXSswd3kooZzC7xEoEX9fv+iVihMFGuB2PYUG8jMBPMsADs1YfAWgbBQa29lE9qKXRPBdn8wzm74x46Bnv8niG4DKou0XqljR8ZgQLEUyKRJU/b2+zObHqXGNJw85juYOr5nzPIROSrb8P4JG1Bqmkvcfw6IPic0jQLfEDx6WR2VRWvWrPxjFAeNtImVQAY+12ZmYuBRSlzDQ0oUAXfCwsJSyVsutW0HvOO40+DjbAY+04T+bgRoUcWvLIrT5+FYCKT6uTY4kwE+t5rtsuEX/ZiBhcYUErOg1UjKggVYQvDoxc2o1fg/hzHpu2TxvDicbGzCZBx+6CZM6Nmpo6NjNoGDHbaN2QaxWfPBSq/l88JSbzFIWp1eQgacrtxBvkVnRyxjJ2wNLzNoXn9//7x161b9p9S4XvgRE4iTdc9mQiCMSfXqzFb83Dv48t3Wp+PqxXP1FObAy3zUcgqSUNYQY16p7C2UGNUL23SB2Hb+Y/D9C0A0vV6dGNYP8WLLtxauKRcebnhbbdjApGz+UN/yz64h+Xd41qo5kK2btS78c3ij2pFNE8ikrvxUtvzgJN/JtYe9TQ+/APFCrYtBUur0ajADtp07AkzBHeXjDW4KBL6HfGvemt7Cika3FfhvuEC6urq2y2R2ubymvLdhmWA8wETfM6YQrQ5f2HZS3JAMKJU/ipjPAeHYhlNEdHWl8tere3t732xkWw0ViJN1jwHh8kZusR5QOf2LD55vjPeLRpKV+g7HgFLuxy3Q+Qz+aDiLaKjg6AEYV5fK3i+jedi2VUME0tU1+T2ZzKjgrvGFbYdQA4KwHOD5cT/VV0MPW9q0epoRdD4Y0xraEaJbKpWNV/f2Pvnv9W6n7gJxsu6pTAjKCDTw6xQ/Q0zzR+rLRr0HIen+Br5Y8vkA7dPAvgZfu4K7SS11XrYIr24CGTdu2g6jR/sLCNzInLTrCLzgjY1j5q9fv/SNBpKduq4zA+PHT99++1EbzmdUcwRMqLP7t9wx6AdEHV+oV8WvugjEtg/YDei7A4zDGtTxFxk037J4fqnk/bVBbaRum8CA47i7+D6dTwjuKHhvI5oM3k18ZD5rzPJSrf5rFkh1Y2HF+jWAcbUGM4T9BhAWWFbH/DVrlv2pAf5TlyPEwKRJ+3/A9/uD95PgjtKIDakvM/hEY4qP1NLFmgSSzeY+bBE1aNsGLaj4mN+uKS9rGdRWsh0oWoTzg2QbjYg72GhpjPfDqL4jC0Qp90ICboza8HB2BPzQhz9/pKo01bs/qb9wDCg1xbVgnV9L4dHhWmLQpcYU5oaL5O2oSAJxlPt5Bv53lAaHtSFeHKSMafds4nXltAWdVfd5BXeT6LXrh+w1g082pvhTKSVigTjZ/AymaqmvOl30BIiu13rF/XVymLpJAAO2PfU4MM8B+IB6dYeRyUsPxYkEEhygYR/L6hTwSyDcEJfSyXXqU+qmzgzYtjsHjKAkdV1yEZAFW3LOJLRAHGfqeK74j4GwR80cMG6H5V8f57PINfcxdVA3Bqq5CXxrDghn1MHp0xW/79Cwq+6hBNLd3T2qv29MsDP24NoCTB+nauOvva3r9dgV1ILfbbfRH1+6dGn/thgNJRClctcQ6JJtOdvavwdfvErG+1ItPlLblIGAAVu5iwCcWQsbDJ5rTPHSbfnYpkCy2dy+FlHw3hE9TSXRmVoXbt9WMOm/pwyEZcBR+bkMvjgsfgjc6z7z/uVy8alt/LBvvQml3B9QDVktGH4+XdOoYRhT02EZsG33BDDujUpRmHr2W72DKDX1SIIf+fDRdtu/seMf/vCHDVE7kNqlDGyLgWpWyDc3Rq6byLCOMmZFsFVqyGsbAsn9hkCHbivIYTx/JF30i8RcaiRkQKlpDqGyRmhWhTP4YWOKw26yHVYgtu2eCUbwMiS+glV2Y7zGHpYSR5UaJJkBpdzTq4kAo1yEmVp73x/KdFiBOMp9jIEPi9sjPKC116jSZ+JwUoP2YcBRue9wcIJReBHweMl4B4UWiNOVP4wtjlBvjp/pr+DotWuLzwtjTOEpAzUzoFTProRMkC3Tljojnw4v9RZ+8067Ie8gtp2/HczixMW1bi2WdirFpwy8kwHbzp8B5iEfl7bKFtEdWhe2WKnfQiBBLY6MlXkmwrrHg9p4R6ZDljIw0gzY2dw/R6hw/HrFr+zzzpolWwjEzrqXgXC1uJPER6aJ2sSspQYNYMC2pxwAtuSJyRmX67L3zc1DGkogz4CwtyTu4JBTyXjNSJEvCSvFtjEDtsr/SJyNnvFHXfbelnnlbQKx7fzBYBYneGawa0yx2MbjkXY9ZgwMpkMddgFw2HCJDtG68Oimf3+7QLK5K0H0VWFff6GN9wmhTQpPGWg4A7Zygx972Q505qt0uXjF0AJR7m8BHCiKnPgkrYuR98OI2krBKQMCBiJ+0fqdNt6HthDIpEn5rF9hacH3p7Xx9hXEnEJTBprGwPjx+757u1GjggKhovxbVobUmjWFchDoW49YjsqfxWBZkRLCxVp71zWtx2lDKQNCBqKcHSHQ2SVTuPUdAsndLa3dwchMqkf2OmGfU3jKQGgGgkzzBPxTaIPqXYPvKZniKW8TiK3cdQD2FDh6ShtvsgCfQlMGRoCBEzK2+lPwmDUxdOOEP2vtfeAtgQxkt+PVoR0EQOabdbl4ocgmBacMjAADtnKDzIqfljTNwL7GeE9X30FsO38amH8kdPCJtGCNhLEUO1IMONn8l5n4Bkn7xDgnKK8xIBCVm4+BtPShrzc3bvy79euf+ltogxSYMjBCDETanU58h9bFMwYF4j4N4IOC+J/Xxqs9P5agwRSaMhCVgQkTenbq7MiIfswJeLZkvG6qFtm0dhYVowlqApZMIdpR3Ki9TO1SBmpgwFbimwAq/svbUzY7ZYJF1lpZ27xAm6L45JasjRSdMlA/BqK8qPvsTySl8gcSONhiEv5inq3LxVvCG6TIlIGRZSBKRQIGfYiUyp1EoHsk4ZOFI0olL8KRXEkrKTZloH4MBPVHCFZB4jEomUBKuV8k4NsSQxAmaO09J7JJwSkDI8yArVyWhMDAl8i23esH08uHtd2ojbddWHCKSxmICwO2cl8CsEvoeAg3BO8gd4hKNw9x6ip0gykwZWAEGbCVG2w5UWFDqJaUtpW7BMBRYY3AeEiXvSNC41NgykBMGLBtd9n/zN9pgnB+FQjEA5ATGN2rjXeSAJ9CUwZiwYBS7gMEHCMIphgIJHjZHh/WiEC3lUzhrLD4FJcyEBcGHOXeKayiuz4QyKuiQu7E39K6GNSMS6+UgZZiwFHujQxIdqBvCATymiRJHIGuLZlCTdWmWorVNNjEMCD+Ykt4LRDIXwDsHpaFzU9bhbVJcSkDcWDAtvM/B/OMsLEw8HwgEOlOXpDvH1zqXbk0bEMpLmVgpBmoVsplqySJg4Enyc7mHgXRdIlhFUu+k5ZxFrOWGowAA07XlOlsWW8lgwsbAoPuC1bSIxfKAdFigNcxI3iPSa+UgVgxYIG2A/zx0mQkmzrBwCzaa0LPHpWOzJ9i1bM0mJSBGDDAyIwbPJPu3g/GsTGIKQ0hZSAeDAxWSqsKxMm6xzDhgXhElkaRMjDyDBDj2FLZ++VbmRVtO72LjPywpBHEgoHN6mz+/9Sj6V0kFmOTBjHyDGy6e1Q/1m4ejp11rwNhzsiHmEaQMjAyDDD4LGOKt21qfcsKU9Lt7yPTj7TVlIH6M8C4XZe9Mzd3PHSVW+UuAvA2YP2jST2mDMSIAealulzcotjOkAIJwlbK/ToBX4tRF9JQUgYaxcAibbxZQzkfViABeLBmSHD2o6dRkaV+UwZGkIFVBLp1Uy0QsUA2GQwIJXjkYncEO5M2nTJQFwYIKAB0+9aEMexL+tYiqOYWIus4ME8HaGcCdmZgZwCddYnnySljAAAAIElEQVQ8dZIyUF8G+gh4mYGXAX6ZQL/ygSVBWYOwzfw3B7/nbm1DZKEAAAAASUVORK5CYII=;" vertex="1" parent="1">
          <mxGeometry x="280" y="100" width="30" height="30" as="geometry" />
        </mxCell>
        <mxCell id="wiMrC1SCOThkHgXVYU3t-14" value="" style="points=[];aspect=fixed;html=1;align=center;shadow=0;dashed=0;fillColor=#FF6A00;strokeColor=none;shape=mxgraph.alibaba_cloud.edas_enterprise_distributed_application_service;" vertex="1" parent="1">
          <mxGeometry x="200" y="390" width="29.43" height="30" as="geometry" />
        </mxCell>
        <mxCell id="wiMrC1SCOThkHgXVYU3t-15" value="" style="points=[];aspect=fixed;html=1;align=center;shadow=0;dashed=0;fillColor=#FF6A00;strokeColor=none;shape=mxgraph.alibaba_cloud.edas_enterprise_distributed_application_service;" vertex="1" parent="1">
          <mxGeometry x="240" y="390" width="29.43" height="30" as="geometry" />
        </mxCell>
        <mxCell id="wiMrC1SCOThkHgXVYU3t-16" value="" style="points=[];aspect=fixed;html=1;align=center;shadow=0;dashed=0;fillColor=#FF6A00;strokeColor=none;shape=mxgraph.alibaba_cloud.edas_enterprise_distributed_application_service;" vertex="1" parent="1">
          <mxGeometry x="200" y="430" width="29.43" height="30" as="geometry" />
        </mxCell>
        <mxCell id="wiMrC1SCOThkHgXVYU3t-17" value="" style="points=[];aspect=fixed;html=1;align=center;shadow=0;dashed=0;fillColor=#FF6A00;strokeColor=none;shape=mxgraph.alibaba_cloud.edas_enterprise_distributed_application_service;" vertex="1" parent="1">
          <mxGeometry x="240" y="430" width="29.43" height="30" as="geometry" />
        </mxCell>
        <mxCell id="wiMrC1SCOThkHgXVYU3t-18" value="" style="points=[];aspect=fixed;html=1;align=center;shadow=0;dashed=0;fillColor=#FF6A00;strokeColor=none;shape=mxgraph.alibaba_cloud.edas_enterprise_distributed_application_service;" vertex="1" parent="1">
          <mxGeometry x="240" y="470" width="29.43" height="30" as="geometry" />
        </mxCell>
        <mxCell id="wiMrC1SCOThkHgXVYU3t-19" value="" style="points=[];aspect=fixed;html=1;align=center;shadow=0;dashed=0;fillColor=#FF6A00;strokeColor=none;shape=mxgraph.alibaba_cloud.edas_enterprise_distributed_application_service;" vertex="1" parent="1">
          <mxGeometry x="200" y="470" width="29.43" height="30" as="geometry" />
        </mxCell>
        <mxCell id="wiMrC1SCOThkHgXVYU3t-22" value="" style="rounded=0;whiteSpace=wrap;html=1;dashed=1;dashPattern=12 12;align=left;" vertex="1" parent="1">
          <mxGeometry x="414" y="370" width="120" height="170" as="geometry" />
        </mxCell>
        <mxCell id="wiMrC1SCOThkHgXVYU3t-23" value="" style="points=[];aspect=fixed;html=1;align=center;shadow=0;dashed=0;fillColor=#FFE599;strokeColor=none;shape=mxgraph.alibaba_cloud.edas_enterprise_distributed_application_service;" vertex="1" parent="1">
          <mxGeometry x="434" y="390" width="29.43" height="30" as="geometry" />
        </mxCell>
        <mxCell id="wiMrC1SCOThkHgXVYU3t-24" value="" style="points=[];aspect=fixed;html=1;align=center;shadow=0;dashed=0;fillColor=#FFE599;strokeColor=none;shape=mxgraph.alibaba_cloud.edas_enterprise_distributed_application_service;" vertex="1" parent="1">
          <mxGeometry x="474" y="390" width="29.43" height="30" as="geometry" />
        </mxCell>
        <mxCell id="wiMrC1SCOThkHgXVYU3t-25" value="" style="points=[];aspect=fixed;html=1;align=center;shadow=0;dashed=0;fillColor=#FFE599;strokeColor=none;shape=mxgraph.alibaba_cloud.edas_enterprise_distributed_application_service;" vertex="1" parent="1">
          <mxGeometry x="434" y="430" width="29.43" height="30" as="geometry" />
        </mxCell>
        <mxCell id="wiMrC1SCOThkHgXVYU3t-26" value="" style="points=[];aspect=fixed;html=1;align=center;shadow=0;dashed=0;fillColor=#FFE599;strokeColor=none;shape=mxgraph.alibaba_cloud.edas_enterprise_distributed_application_service;" vertex="1" parent="1">
          <mxGeometry x="474" y="430" width="29.43" height="30" as="geometry" />
        </mxCell>
        <mxCell id="wiMrC1SCOThkHgXVYU3t-27" value="" style="points=[];aspect=fixed;html=1;align=center;shadow=0;dashed=0;fillColor=#FFE599;strokeColor=none;shape=mxgraph.alibaba_cloud.edas_enterprise_distributed_application_service;" vertex="1" parent="1">
          <mxGeometry x="474" y="470" width="29.43" height="30" as="geometry" />
        </mxCell>
        <mxCell id="wiMrC1SCOThkHgXVYU3t-28" value="" style="points=[];aspect=fixed;html=1;align=center;shadow=0;dashed=0;fillColor=#FFE599;strokeColor=none;shape=mxgraph.alibaba_cloud.edas_enterprise_distributed_application_service;" vertex="1" parent="1">
          <mxGeometry x="434" y="470" width="29.43" height="30" as="geometry" />
        </mxCell>
        <mxCell id="wiMrC1SCOThkHgXVYU3t-31" value="&lt;span style=&quot;text-align: left;&quot;&gt;&lt;font style=&quot;color: rgb(255, 229, 153);&quot;&gt;Application B Cluster&lt;/font&gt;&lt;/span&gt;" style="text;html=1;align=center;verticalAlign=middle;whiteSpace=wrap;rounded=0;" vertex="1" parent="1">
          <mxGeometry x="409" y="500" width="130" height="30" as="geometry" />
        </mxCell>
        <mxCell id="wiMrC1SCOThkHgXVYU3t-32" value="&lt;span style=&quot;text-align: left;&quot;&gt;&lt;font style=&quot;color: rgb(255, 106, 0);&quot;&gt;Application A Cluster&lt;/font&gt;&lt;/span&gt;" style="text;html=1;align=center;verticalAlign=middle;whiteSpace=wrap;rounded=0;" vertex="1" parent="1">
          <mxGeometry x="175" y="500" width="130" height="30" as="geometry" />
        </mxCell>
      </root>
    </mxGraphModel>
  </diagram>
</mxfile>
